<svg width="1610" height="3450" viewBox="0 0 1610 3450" fill="none" xmlns="http://www.w3.org/2000/svg">
<rect x="54" y="119" width="1440" height="3331" fill="url(#paint0_linear_116_79)"/>
<g opacity="0.8">
<path d="M1294.43 0.0025524C1287.3 0.265978 1275 18.8818 1272.13 22.7058C1249.67 52.6329 1249.9 12.4969 1236.25 18.4517C1229.3 21.4834 1226.56 32.9461 1222.07 38.9281C1214.66 48.7949 1219.17 63.5061 1211.69 73.4068C1202 86.5454 1188.5 93.0797 1181 113H1593C1587.84 104.685 1582.71 96.0621 1578.15 87.5718C1568.33 69.5175 1571.56 70.5125 1556.46 86.7335C1551.47 92.072 1548.47 101.93 1541.88 104.805C1531.28 109.431 1513.54 76.8841 1507.16 72.4045C1497.6 65.6915 1489.41 94.5816 1478.4 75.1154C1469.39 59.1679 1464.51 33.5796 1446.92 24.205C1437.37 19.1172 1426.29 49.9827 1420.96 54.7377C1415.99 59.1785 1413.73 57.0205 1406.23 64.6811C1404.11 66.8439 1401.16 73.6829 1397.05 71.4942C1378.73 61.7274 1378.15 57.3139 1365.69 41.6124C1363.35 38.6707 1359.69 37.8104 1357.54 35.5636C1355.83 33.7723 1333.75 50.9423 1329.43 46.4234C1328.06 44.9809 1314.97 26.8119 1313.55 24.3077C1308.49 15.3492 1307.5 4.49279 1295.78 0.205957C1295.35 0.0505692 1294.9 -0.01412 1294.43 0.0025524Z" fill="#F6911E"/>
<path d="M830.572 27.0019C837.701 27.2024 850 41.3702 852.87 44.2805C875.326 67.0569 875.102 36.5109 888.751 41.0429C895.699 43.3502 898.443 52.074 902.932 56.6267C910.335 64.136 905.835 75.332 913.311 82.8672C923.002 92.8664 936.504 97.8394 944 113H532C537.161 106.672 542.285 100.109 546.845 93.6476C556.669 79.9071 553.437 80.6644 568.543 93.0096C573.528 97.0725 576.531 104.575 583.12 106.763C593.72 110.284 611.46 85.5135 617.839 82.1043C627.397 76.9953 635.593 98.9824 646.598 84.1675C655.615 72.0304 660.493 52.5562 678.082 45.4215C687.625 41.5494 698.715 65.0399 704.039 68.6588C709.012 72.0385 711.267 70.3961 718.774 76.2263C720.893 77.8723 723.84 83.0773 727.945 81.4115C746.271 73.9784 746.849 70.6194 759.311 58.6696C761.646 56.4308 765.313 55.7761 767.458 54.0661C769.167 52.7028 791.254 65.7703 795.567 62.3311C796.943 61.2333 810.03 47.4055 811.446 45.4997C816.51 38.6817 817.505 30.4193 829.221 27.1567C829.645 27.0385 830.097 26.9893 830.572 27.0019Z" fill="#F6911E"/>
<path d="M1007.43 27.0019C1000.3 27.2024 988 41.3702 985.13 44.2805C985.13 82.8672 978.649 64.1268 965 68.6588C958.052 70.9661 953.738 71.6736 949.249 76.2263C941.846 83.7356 932.165 75.332 924.689 82.8672C914.998 92.8664 901.496 97.8394 894 113H1306C1300.84 106.672 1295.71 100.109 1291.15 93.6476C1281.33 79.9071 1284.56 80.6644 1269.46 93.0096C1264.47 97.0725 1261.47 104.575 1254.88 106.763C1244.28 110.284 1226.54 85.5135 1220.16 82.1043C1210.6 76.9953 1202.41 98.9824 1191.4 84.1675C1182.39 72.0304 1177.51 52.5562 1159.92 45.4215C1150.37 41.5494 1139.29 65.0399 1133.96 68.6588C1128.99 72.0385 1126.73 70.3961 1119.23 76.2263C1117.11 77.8723 1114.16 83.0773 1110.05 81.4115C1091.73 73.9784 1091.15 70.6194 1078.69 58.6696C1076.35 56.4308 1072.69 55.7761 1070.54 54.0661C1068.83 52.7028 1046.75 65.7703 1042.43 62.3311C1041.06 61.2333 1034.92 39.4059 1033.5 37.5C1028.44 30.6821 1020.5 30.4193 1008.78 27.1567C1008.35 27.0385 1007.9 26.9893 1007.43 27.0019Z" fill="#F6911E"/>
<path d="M576.572 27.0019C583.701 27.2024 596 41.3702 598.87 44.2805C621.326 67.0569 621.102 36.5109 634.751 41.0429C641.699 43.3502 644.443 52.074 648.932 56.6267C656.335 64.136 651.835 75.332 659.311 82.8672C669.002 92.8664 682.504 97.8394 690 113H278C283.161 106.672 288.285 100.109 292.845 93.6476C302.669 79.9071 314.894 59.6548 330 72C334.985 76.063 339.411 66.4707 346 68.6588C356.601 72.1796 357.46 85.5135 363.839 82.1043C373.397 76.9953 381.593 98.9824 392.598 84.1675C401.615 72.0304 403.411 69.4658 421 62.3311C430.543 58.459 444.715 65.0399 450.039 68.6588C455.012 72.0385 457.267 70.3961 464.774 76.2263C466.893 77.8723 469.84 83.0773 473.945 81.4115C492.271 73.9784 492.849 70.6194 505.311 58.6696C507.646 56.4308 511.313 55.7761 513.458 54.0661C515.167 52.7028 537.253 65.7703 541.567 62.3311C542.943 61.2333 556.031 47.4055 557.446 45.4997C562.51 38.6817 563.505 30.4193 575.221 27.1567C575.645 27.0385 576.097 26.9893 576.572 27.0019Z" fill="#F6911E"/>
<path d="M113.428 0.0025524C106.299 0.265978 94.0001 18.8818 91.1302 22.7058C68.6735 52.6329 68.8984 12.4969 55.249 18.4517C48.3009 21.4834 45.5568 32.9461 41.068 38.9281C33.6647 48.7949 38.1655 63.5061 30.689 73.4068C20.9981 86.5454 7.49643 93.0797 0 113H412C406.839 104.685 401.715 96.0621 397.155 87.5718C387.331 69.5175 390.563 70.5125 375.457 86.7335C370.472 92.072 367.469 101.93 360.88 104.805C350.28 109.431 332.54 76.8841 326.161 72.4045C316.603 65.6915 308.407 94.5816 297.402 75.1154C288.385 59.1679 283.507 33.5796 265.918 24.205C256.375 19.1172 245.285 49.9827 239.961 54.7377C234.988 59.1785 232.733 57.0205 225.226 64.6811C223.107 66.8439 220.16 73.6829 216.055 71.4942C197.729 61.7274 197.151 57.3139 184.689 41.6124C182.354 38.6707 178.687 37.8104 176.542 35.5636C174.833 33.7723 152.746 50.9423 148.433 46.4234C147.057 44.9809 133.97 26.8119 132.554 24.3077C127.49 15.3492 126.495 4.49279 114.779 0.205957C114.355 0.0505692 113.903 -0.01412 113.428 0.0025524Z" fill="#F6911E"/>
</g>
<g opacity="0.8">
<path d="M1301.43 18.0026C1294.3 18.266 1282 36.8818 1279.13 40.7058C1256.67 70.6329 1256.9 30.4969 1243.25 36.4517C1236.3 39.4834 1233.56 50.9461 1229.07 56.9281C1221.66 66.7949 1226.17 81.5061 1218.69 91.4068C1209 104.545 1195.5 111.08 1188 131H1600C1594.84 122.685 1589.71 114.062 1585.15 105.572C1575.33 87.5175 1578.56 88.5125 1563.46 104.733C1558.47 110.072 1555.47 119.93 1548.88 122.805C1538.28 127.431 1520.54 94.8841 1514.16 90.4045C1504.6 83.6915 1496.41 112.582 1485.4 93.1154C1476.39 77.1679 1471.51 51.5796 1453.92 42.205C1444.37 37.1172 1433.29 67.9827 1427.96 72.7377C1422.99 77.1785 1420.73 75.0205 1413.23 82.6811C1411.11 84.8439 1408.16 91.6829 1404.05 89.4942C1385.73 79.7274 1385.15 75.3139 1372.69 59.6124C1370.35 56.6707 1366.69 55.8104 1364.54 53.5636C1362.83 51.7723 1340.75 68.9423 1336.43 64.4234C1335.06 62.9809 1321.97 44.8119 1320.55 42.3077C1315.49 33.3492 1314.5 22.4928 1302.78 18.206C1302.35 18.0506 1301.9 17.9859 1301.43 18.0026Z" fill="#35378D"/>
<path d="M837.572 45.0019C844.701 45.2024 857 59.3702 859.87 62.2805C882.326 85.0569 882.102 54.5109 895.751 59.0429C902.699 61.3502 905.443 70.074 909.932 74.6267C917.335 82.136 912.835 93.332 920.311 100.867C930.002 110.866 943.504 115.839 951 131H539C544.161 124.672 549.285 118.109 553.845 111.648C563.669 97.9071 560.437 98.6644 575.543 111.01C580.528 115.073 583.531 122.575 590.12 124.763C600.72 128.284 618.46 103.514 624.839 100.104C634.397 94.9953 642.593 116.982 653.598 102.168C662.615 90.0304 667.493 70.5562 685.082 63.4215C694.625 59.5494 705.715 83.0399 711.039 86.6588C716.012 90.0385 718.267 88.3961 725.774 94.2263C727.893 95.8723 730.84 101.077 734.945 99.4115C753.271 91.9784 753.849 88.6194 766.311 76.6696C768.646 74.4308 772.313 73.7761 774.458 72.0661C776.167 70.7028 798.254 83.7703 802.567 80.3311C803.943 79.2333 817.03 65.4055 818.446 63.4997C823.51 56.6817 824.505 48.4193 836.221 45.1567C836.645 45.0385 837.097 44.9893 837.572 45.0019Z" fill="#35378D"/>
<path d="M1014.43 45.0019C1007.3 45.2024 995 59.3702 992.13 62.2805C992.13 100.867 985.649 82.1268 972 86.6588C965.052 88.9661 960.738 89.6736 956.249 94.2263C948.846 101.736 939.165 93.332 931.689 100.867C921.998 110.866 908.496 115.839 901 131H1313C1307.84 124.672 1302.71 118.109 1298.15 111.648C1288.33 97.9071 1291.56 98.6644 1276.46 111.01C1271.47 115.073 1268.47 122.575 1261.88 124.763C1251.28 128.284 1233.54 103.514 1227.16 100.104C1217.6 94.9953 1209.41 116.982 1198.4 102.168C1189.39 90.0304 1184.51 70.5562 1166.92 63.4215C1157.37 59.5494 1146.29 83.0399 1140.96 86.6588C1135.99 90.0385 1133.73 88.3961 1126.23 94.2263C1124.11 95.8723 1121.16 101.077 1117.05 99.4115C1098.73 91.9784 1098.15 88.6194 1085.69 76.6696C1083.35 74.4308 1079.69 73.7761 1077.54 72.0661C1075.83 70.7028 1053.75 83.7703 1049.43 80.3311C1048.06 79.2333 1041.92 57.4059 1040.5 55.5C1035.44 48.6821 1027.5 48.4193 1015.78 45.1567C1015.35 45.0385 1014.9 44.9893 1014.43 45.0019Z" fill="#35378D"/>
<path d="M583.572 45.0019C590.701 45.2024 603 59.3702 605.87 62.2805C628.326 85.0569 628.102 54.5109 641.751 59.0429C648.699 61.3502 651.443 70.074 655.932 74.6267C663.335 82.136 658.835 93.332 666.311 100.867C676.002 110.866 689.504 115.839 697 131H285C290.161 124.672 295.285 118.109 299.845 111.648C309.669 97.9071 321.894 77.6548 337 90C341.985 94.063 346.411 84.4707 353 86.6588C363.601 90.1796 364.46 103.514 370.839 100.104C380.397 94.9953 388.593 116.982 399.598 102.168C408.615 90.0304 410.411 87.4658 428 80.3311C437.543 76.459 451.715 83.0399 457.039 86.6588C462.012 90.0385 464.267 88.3961 471.774 94.2263C473.893 95.8723 476.84 101.077 480.945 99.4115C499.271 91.9784 499.849 88.6194 512.311 76.6696C514.646 74.4308 518.313 73.7761 520.458 72.0661C522.167 70.7028 544.253 83.7703 548.567 80.3311C549.943 79.2333 563.031 65.4055 564.446 63.4997C569.51 56.6817 570.505 48.4193 582.221 45.1567C582.645 45.0385 583.097 44.9893 583.572 45.0019Z" fill="#35378D"/>
<path d="M120.428 18.0026C113.299 18.266 101 36.8818 98.1302 40.7058C75.6735 70.6329 75.8984 30.4969 62.249 36.4517C55.3009 39.4834 52.5568 50.9461 48.068 56.9281C40.6647 66.7949 45.1655 81.5061 37.689 91.4068C27.9981 104.545 14.4964 111.08 7 131H419C413.839 122.685 408.715 114.062 404.155 105.572C394.331 87.5175 397.563 88.5125 382.457 104.733C377.472 110.072 374.469 119.93 367.88 122.805C357.28 127.431 339.54 94.8841 333.161 90.4045C323.603 83.6915 315.407 112.582 304.402 93.1154C295.385 77.1679 290.507 51.5796 272.918 42.205C263.375 37.1172 252.285 67.9827 246.961 72.7377C241.988 77.1785 239.733 75.0205 232.226 82.6811C230.107 84.8439 227.16 91.6829 223.055 89.4942C204.729 79.7274 204.151 75.3139 191.689 59.6124C189.354 56.6707 185.687 55.8104 183.542 53.5636C181.833 51.7723 159.746 68.9423 155.433 64.4234C154.057 62.9809 140.97 44.8119 139.554 42.3077C134.49 33.3492 133.495 22.4928 121.779 18.206C121.355 18.0506 120.903 17.9859 120.428 18.0026Z" fill="#35378D"/>
</g>
<path d="M1311.43 29.0026C1304.3 29.266 1292 47.8818 1289.13 51.7058C1266.67 81.6329 1266.9 41.4969 1253.25 47.4517C1246.3 50.4834 1243.56 61.9461 1239.07 67.9281C1231.66 77.7949 1236.17 92.5061 1228.69 102.407C1219 115.545 1205.5 122.08 1198 142H1610C1604.84 133.685 1599.71 125.062 1595.15 116.572C1585.33 98.5175 1588.56 99.5125 1573.46 115.733C1568.47 121.072 1565.47 130.93 1558.88 133.805C1548.28 138.431 1530.54 105.884 1524.16 101.404C1514.6 94.6915 1506.41 123.582 1495.4 104.115C1486.39 88.1679 1481.51 62.5796 1463.92 53.205C1454.37 48.1172 1443.29 78.9827 1437.96 83.7377C1432.99 88.1785 1430.73 86.0205 1423.23 93.6811C1421.11 95.8439 1418.16 102.683 1414.05 100.494C1395.73 90.7274 1395.15 86.3139 1382.69 70.6124C1380.35 67.6707 1376.69 66.8104 1374.54 64.5636C1372.83 62.7723 1350.75 79.9423 1346.43 75.4234C1345.06 73.9809 1331.97 55.8119 1330.55 53.3077C1325.49 44.3492 1324.5 33.4928 1312.78 29.206C1312.35 29.0506 1311.9 28.9859 1311.43 29.0026Z" fill="#0A2D6E"/>
<path d="M847.572 56.0019C854.701 56.2024 867 70.3702 869.87 73.2805C892.326 96.0569 892.102 65.5109 905.751 70.0429C912.699 72.3502 915.443 81.074 919.932 85.6267C927.335 93.136 922.835 104.332 930.311 111.867C940.002 121.866 953.504 126.839 961 142H549C554.161 135.672 559.285 129.109 563.845 122.648C573.669 108.907 570.437 109.664 585.543 122.01C590.528 126.073 593.531 133.575 600.12 135.763C610.72 139.284 628.46 114.514 634.839 111.104C644.397 105.995 652.593 127.982 663.598 113.168C672.615 101.03 677.493 81.5562 695.082 74.4215C704.625 70.5494 715.715 94.0399 721.039 97.6588C726.012 101.039 728.267 99.3961 735.774 105.226C737.893 106.872 740.84 112.077 744.945 110.411C763.271 102.978 763.849 99.6194 776.311 87.6696C778.646 85.4308 782.313 84.7761 784.458 83.0661C786.167 81.7028 808.254 94.7703 812.567 91.3311C813.943 90.2333 827.03 76.4055 828.446 74.4997C833.51 67.6817 834.505 59.4193 846.221 56.1567C846.645 56.0385 847.097 55.9893 847.572 56.0019Z" fill="#0A2D6E"/>
<path d="M1024.43 56.0019C1017.3 56.2024 1005 70.3702 1002.13 73.2805C1002.13 111.867 995.649 93.1268 982 97.6588C975.052 99.9661 970.738 100.674 966.249 105.226C958.846 112.736 949.165 104.332 941.689 111.867C931.998 121.866 918.496 126.839 911 142H1323C1317.84 135.672 1312.71 129.109 1308.15 122.648C1298.33 108.907 1301.56 109.664 1286.46 122.01C1281.47 126.073 1278.47 133.575 1271.88 135.763C1261.28 139.284 1243.54 114.514 1237.16 111.104C1227.6 105.995 1219.41 127.982 1208.4 113.168C1199.39 101.03 1194.51 81.5562 1176.92 74.4215C1167.37 70.5494 1156.29 94.0399 1150.96 97.6588C1145.99 101.039 1143.73 99.3961 1136.23 105.226C1134.11 106.872 1131.16 112.077 1127.05 110.411C1108.73 102.978 1108.15 99.6194 1095.69 87.6696C1093.35 85.4308 1089.69 84.7761 1087.54 83.0661C1085.83 81.7028 1063.75 94.7703 1059.43 91.3311C1058.06 90.2333 1051.92 68.4059 1050.5 66.5C1045.44 59.6821 1037.5 59.4193 1025.78 56.1567C1025.35 56.0385 1024.9 55.9893 1024.43 56.0019Z" fill="#0A2D6E"/>
<path d="M593.572 56.0019C600.701 56.2024 613 70.3702 615.87 73.2805C638.326 96.0569 638.102 65.5109 651.751 70.0429C658.699 72.3502 661.443 81.074 665.932 85.6267C673.335 93.136 668.835 104.332 676.311 111.867C686.002 121.866 699.504 126.839 707 142H295C300.161 135.672 305.285 129.109 309.845 122.648C319.669 108.907 331.894 88.6548 347 101C351.985 105.063 356.411 95.4707 363 97.6588C373.601 101.18 374.46 114.514 380.839 111.104C390.397 105.995 398.593 127.982 409.598 113.168C418.615 101.03 420.411 98.4658 438 91.3311C447.543 87.459 461.715 94.0399 467.039 97.6588C472.012 101.039 474.267 99.3961 481.774 105.226C483.893 106.872 486.84 112.077 490.945 110.411C509.271 102.978 509.849 99.6194 522.311 87.6696C524.646 85.4308 528.313 84.7761 530.458 83.0661C532.167 81.7028 554.253 94.7703 558.567 91.3311C559.943 90.2333 573.031 76.4055 574.446 74.4997C579.51 67.6817 580.505 59.4193 592.221 56.1567C592.645 56.0385 593.097 55.9893 593.572 56.0019Z" fill="#0A2D6E"/>
<path d="M130.428 29.0026C123.299 29.266 111 47.8818 108.13 51.7058C85.6735 81.6329 85.8984 41.4969 72.249 47.4517C65.3009 50.4834 62.5568 61.9461 58.068 67.9281C50.6647 77.7949 55.1655 92.5061 47.689 102.407C37.9981 115.545 24.4964 122.08 17 142H429C423.839 133.685 418.715 125.062 414.155 116.572C404.331 98.5175 407.563 99.5125 392.457 115.733C387.472 121.072 384.469 130.93 377.88 133.805C367.28 138.431 349.54 105.884 343.161 101.404C333.603 94.6915 325.407 123.582 314.402 104.115C305.385 88.1679 300.507 62.5796 282.918 53.205C273.375 48.1172 262.285 78.9827 256.961 83.7377C251.988 88.1785 249.733 86.0205 242.226 93.6811C240.107 95.8439 237.16 102.683 233.055 100.494C214.729 90.7274 214.151 86.3139 201.689 70.6124C199.354 67.6707 195.687 66.8104 193.542 64.5636C191.833 62.7723 169.746 79.9423 165.433 75.4234C164.057 73.9809 150.97 55.8119 149.554 53.3077C144.49 44.3492 143.495 33.4928 131.779 29.206C131.355 29.0506 130.903 28.9859 130.428 29.0026Z" fill="#0A2D6E"/>
<path d="M12.1284 243.009C20.0157 223.24 33.6435 216.973 43.5914 204.028C51.2614 194.276 47.0513 179.479 54.6475 169.76C59.2533 163.868 62.2227 152.461 69.2292 149.567C82.9933 143.882 81.9778 184.006 105.02 154.527C107.964 150.761 120.628 132.391 127.76 132.268C128.236 132.26 128.686 132.334 129.107 132.498C140.736 137.014 141.517 147.888 146.404 156.945C147.77 159.477 160.497 177.9 161.844 179.369C166.068 183.972 188.488 167.241 190.162 169.065C192.261 171.354 195.911 172.286 198.188 175.273C210.339 191.217 210.829 195.641 228.959 205.767C233.02 208.036 236.101 201.257 238.263 199.136C245.919 191.625 248.131 193.827 253.19 189.485C258.608 184.836 270.303 154.195 279.743 159.469C297.145 169.189 301.518 194.868 310.219 210.99C320.839 230.669 329.602 201.946 339.026 208.846C345.316 213.451 351.738 210.319 362.427 205.902C369.071 203.158 382.941 229.383 388.03 224.144C403.452 208.223 400.241 207.165 409.707 225.409C414.193 215.078 425.748 195.303 436.08 198.852C446.413 202.401 459.225 208.64 464.34 211.315C471.403 216.654 487.766 225.475 496.714 218.05C507.899 208.769 536.381 184.587 542.777 189.952C549.172 195.317 572.054 201.531 577.27 190.632C582.486 179.732 592.328 162.423 596.308 163.501C600.287 164.58 612.98 180.333 615.989 179.892C618.998 179.451 633.828 188.245 646.562 176.494C656.749 167.093 662.535 186.477 664.154 197.344C668.594 200.433 695.473 181.458 695.473 181.458C697.862 178.672 703.576 176.317 707.323 189.193C711.07 202.07 719.065 202.427 722.594 200.996C726.504 205.574 738.256 213.207 753.979 207.116C769.702 201.024 777.417 193.575 779.309 190.612C782.045 187.165 788.607 180.693 792.974 182.379C798.434 184.487 809.813 190.713 814.372 187.802C818.93 184.891 826.987 182.049 837.84 164.26C846.522 150.028 857.474 157.645 861.865 163.233C864.589 168.787 871.84 179.832 879.046 179.574C888.054 179.252 903.64 175.058 904.758 169.079C905.652 164.295 910.965 175.536 913.51 181.754C914.486 191.441 919.032 211.168 929.406 212.573C939.78 213.977 943.42 212.015 943.942 210.859C953.451 210.546 972.698 208.325 973.624 201.942C974.55 195.559 991.052 197.284 999.188 198.945C1002.69 198.68 1009.77 194.652 1010.05 180.655C1010.33 166.658 1011.34 166.178 1011.81 167.687C1014.04 164.231 1020.02 157.047 1026.04 155.965C1032.06 154.884 1040.08 162.41 1043.34 166.308L1050.84 191.961C1052.28 194.657 1079.88 190.033 1079.88 190.033C1084.06 189.282 1092.8 189.087 1094.3 194.317C1096.17 200.856 1116.93 213.267 1124.45 212.415C1131.97 211.563 1135.96 211.642 1144.1 204.801C1150.61 199.328 1157.56 198.398 1160.23 198.617C1162.88 190.835 1169.68 175.699 1175.65 177.417C1181.61 179.135 1191.1 197.058 1195.09 205.805C1197.65 211.523 1204.76 222.799 1212.77 222.157C1220.79 221.515 1232.08 206.534 1236.73 199.124C1237.51 193.638 1239.68 181.279 1242.19 175.727C1245.33 168.788 1253.12 153.938 1256.12 153.998C1259.12 154.057 1267.31 170.221 1272.33 168.82C1277.36 167.419 1291.86 167.704 1313.46 137.624C1316.43 147.518 1323.87 167.435 1329.86 167.953C1337.35 168.601 1332.04 184.499 1346.58 182.285C1361.13 180.071 1374.31 170.829 1377.2 176.887C1379.5 181.733 1393.5 195.545 1400.21 201.845C1403.14 205.57 1411.41 212.068 1421.09 208.258C1430.76 204.448 1433.27 198.829 1433.32 196.496C1437.52 194.912 1446.32 191.652 1447.93 191.283C1449.94 190.823 1459.07 158.496 1463.49 162.584C1467.03 165.855 1472.42 174.763 1474.68 178.808C1478.91 192.227 1488.69 219.092 1493.89 219.194C1500.38 219.322 1506.76 225.449 1516.97 215.148C1525.13 206.907 1530.98 214.924 1532.88 219.962" stroke="#F1E1B4" stroke-width="0.1"/>
<path d="M12.4916 224.513C20.379 204.744 34.0068 198.477 43.9547 185.532C51.6247 175.78 47.4146 160.983 55.0108 151.264C59.6166 145.372 62.586 133.965 69.5925 131.071C83.3566 125.386 82.3411 165.51 105.383 136.031C108.328 132.264 120.991 113.895 128.123 113.772C128.599 113.764 129.049 113.838 129.47 114.002C141.1 118.518 141.88 129.392 146.767 138.449C148.133 140.98 160.86 159.404 162.208 160.873C166.431 165.476 188.852 148.745 190.525 150.569C192.625 152.858 196.274 153.79 198.551 156.777C210.702 172.721 211.192 177.145 229.322 187.271C233.383 189.54 236.464 182.761 238.626 180.64C246.282 173.129 248.495 175.331 253.554 170.989C258.971 166.34 270.666 135.699 280.107 140.973C297.508 150.693 301.882 176.372 310.582 192.494C321.202 212.173 329.965 183.45 339.389 190.35C345.679 194.955 352.101 191.823 362.791 187.406C369.435 184.662 383.304 210.887 388.393 205.648C403.816 189.727 400.604 188.669 410.07 206.913C414.556 196.582 426.112 176.807 436.444 180.356C446.776 183.905 459.589 190.144 464.704 192.819C471.767 198.158 488.129 206.979 497.077 199.554C508.262 190.272 536.744 166.091 543.14 171.456C549.535 176.821 572.417 183.035 577.633 172.135C582.849 161.236 592.692 143.927 596.671 145.005C600.651 146.084 613.343 161.837 616.352 161.396C619.361 160.955 634.191 169.749 646.925 157.998C657.112 148.597 662.898 167.981 664.518 178.848C668.958 181.936 695.837 162.962 695.837 162.962C698.225 160.175 703.94 157.821 707.687 170.697C711.434 183.574 719.428 183.931 722.957 182.5C726.868 187.078 738.62 194.711 754.343 188.62C770.066 182.528 777.781 175.079 779.673 172.116C782.408 168.669 788.97 162.197 793.338 163.883C798.797 165.991 810.177 172.216 814.735 169.306C819.293 166.395 827.351 163.553 838.203 145.763C846.885 131.532 857.837 139.149 862.228 144.737C864.952 150.291 872.203 161.336 879.409 161.078C888.418 160.756 904.003 156.562 905.121 150.583C906.016 145.799 911.329 157.04 913.873 163.258C914.849 172.945 919.395 192.672 929.769 194.077C940.144 195.481 943.783 193.519 944.306 192.363C953.814 192.05 973.061 189.829 973.987 183.446C974.913 177.063 991.416 178.788 999.551 180.449C1003.06 180.184 1010.14 176.156 1010.41 162.159C1010.69 148.162 1011.7 147.682 1012.17 149.191C1014.4 145.735 1020.38 138.551 1026.4 137.469C1032.43 136.388 1040.45 143.914 1043.7 147.812L1051.2 173.465C1052.65 176.16 1080.24 171.537 1080.24 171.537C1084.42 170.785 1093.16 170.591 1094.66 175.821C1096.53 182.36 1117.29 194.771 1124.81 193.919C1132.33 193.067 1136.33 193.146 1144.46 186.305C1150.97 180.832 1157.93 179.902 1160.59 180.121C1163.24 172.338 1170.04 157.203 1176.01 158.921C1181.98 160.639 1191.46 178.562 1195.45 187.309C1198.01 193.027 1205.12 204.303 1213.14 203.661C1221.15 203.018 1232.45 188.038 1237.09 180.628C1237.87 175.142 1240.05 162.783 1242.56 157.231C1245.69 150.292 1253.49 135.442 1256.49 135.501C1259.49 135.561 1267.67 151.725 1272.7 150.324C1277.73 148.922 1292.22 149.208 1313.82 119.128C1316.79 129.022 1324.23 148.939 1330.23 149.457C1337.71 150.104 1332.4 166.003 1346.95 163.789C1361.49 161.575 1374.68 152.333 1377.56 158.391C1379.86 163.237 1393.86 177.049 1400.57 183.349C1403.5 187.074 1411.77 193.572 1421.45 189.762C1431.13 185.952 1433.64 180.333 1433.68 178C1437.88 176.416 1446.68 173.156 1448.29 172.787C1450.3 172.327 1459.44 140 1463.86 144.088C1467.39 147.359 1472.79 156.266 1475.04 160.312C1479.28 173.731 1489.05 200.595 1494.25 200.698C1500.75 200.826 1507.13 206.953 1517.33 196.652C1525.5 188.411 1531.34 196.428 1533.24 201.466" stroke="#F1E1B4" stroke-width="0.25"/>
<path d="M12.8569 206.016C20.7443 186.247 34.372 179.98 44.3199 167.035C51.99 157.283 47.7799 142.486 55.3761 132.767C59.9818 126.875 62.9512 115.468 69.9577 112.574C83.7218 106.889 82.7063 147.013 105.748 117.534C108.693 113.767 121.356 95.3975 128.489 95.2745C128.964 95.2672 129.414 95.3408 129.835 95.5045C141.465 100.021 142.246 110.895 147.133 119.952C148.498 122.483 161.226 140.907 162.573 142.376C166.796 146.979 189.217 130.247 190.89 132.072C192.99 134.361 196.639 135.293 198.916 138.28C211.067 154.224 211.558 158.648 229.687 168.774C233.748 171.043 236.83 164.264 238.991 162.143C246.647 154.632 248.86 156.834 253.919 152.492C259.336 147.842 271.032 117.201 280.472 122.476C297.873 132.196 302.247 157.875 310.947 173.997C321.567 193.676 330.331 164.953 339.754 171.853C346.044 176.458 352.466 173.326 363.156 168.909C369.8 166.164 383.669 192.39 388.758 187.15C404.181 171.23 400.969 170.172 410.436 188.416C414.922 178.085 426.477 158.31 436.809 161.859C447.141 165.408 459.954 171.647 465.069 174.322C472.132 179.661 488.495 188.482 497.443 181.057C508.628 171.775 537.109 147.594 543.505 152.959C549.901 158.323 572.783 164.538 577.998 153.638C583.214 142.739 593.057 125.43 597.036 126.508C601.016 127.587 613.708 143.34 616.717 142.899C619.727 142.458 634.556 151.252 647.29 139.501C657.477 130.1 663.263 149.484 664.883 160.351C669.323 163.439 696.202 144.465 696.202 144.465C698.591 141.678 704.305 139.324 708.052 152.2C711.799 165.076 719.793 165.434 723.322 164.003C727.233 168.581 738.985 176.214 754.708 170.123C770.431 164.031 778.146 156.582 780.038 153.618C782.773 150.172 789.335 143.7 793.703 145.386C799.162 147.494 810.542 153.719 815.1 150.809C819.658 147.898 827.716 145.056 838.568 127.266C847.25 113.035 858.203 120.652 862.593 126.239C865.318 131.794 872.568 142.839 879.775 142.581C888.783 142.259 904.368 138.065 905.486 132.086C906.381 127.302 911.694 138.542 914.238 144.76C915.214 154.448 919.76 174.175 930.134 175.58C940.509 176.984 944.148 175.022 944.671 173.866C954.179 173.553 973.427 171.332 974.352 164.949C975.278 158.566 991.781 160.291 999.916 161.952C1003.42 161.687 1010.5 157.659 1010.78 143.662C1011.05 129.665 1012.06 129.185 1012.53 130.694C1014.77 127.237 1020.75 120.054 1026.77 118.972C1032.79 117.891 1040.81 125.417 1044.07 129.315L1051.56 154.968C1053.01 157.663 1080.61 153.039 1080.61 153.039C1084.79 152.288 1093.53 152.094 1095.03 157.324C1096.9 163.862 1117.66 176.274 1125.18 175.422C1132.69 174.57 1136.69 174.648 1144.83 167.807C1151.34 162.335 1158.29 161.405 1160.95 161.624C1163.61 153.841 1170.41 138.706 1176.37 140.424C1182.34 142.141 1191.82 160.065 1195.82 168.812C1198.37 174.53 1205.49 185.806 1213.5 185.164C1221.51 184.521 1232.81 169.541 1237.46 162.131C1238.23 156.645 1240.41 144.286 1242.92 138.734C1246.06 131.795 1253.85 116.945 1256.85 117.004C1259.85 117.063 1268.03 133.228 1273.06 131.827C1278.09 130.425 1292.59 130.711 1314.19 100.631C1317.16 110.524 1324.6 130.442 1330.59 130.96C1338.08 131.607 1332.77 147.506 1347.31 145.292C1361.86 143.078 1375.04 133.836 1377.92 139.894C1380.23 144.74 1394.23 158.552 1400.94 164.852C1403.86 168.577 1412.14 175.075 1421.81 171.265C1431.49 167.454 1434 161.836 1434.05 159.503C1438.25 157.919 1447.05 154.658 1448.65 154.29C1450.66 153.83 1459.8 121.503 1464.22 125.591C1467.76 128.861 1473.15 137.769 1475.41 141.815C1479.64 155.234 1489.41 182.098 1494.61 182.201C1501.11 182.329 1507.49 188.456 1517.7 178.155C1525.86 169.914 1531.7 177.931 1533.61 182.969" stroke="#F1E1B4" stroke-width="0.5"/>
<path d="M13.2221 187.519C21.1095 167.751 34.7373 161.484 44.6851 148.539C52.3552 138.787 48.1451 123.99 55.7413 114.271C60.3471 108.379 63.3165 96.9721 70.323 94.0779C84.087 88.3932 83.0715 128.517 106.113 99.0381C109.058 95.2713 121.722 76.9014 128.854 76.7785C129.329 76.7711 129.78 76.8447 130.2 77.0084C141.83 81.5252 142.611 92.3992 147.498 101.456C148.863 103.987 161.591 122.411 162.938 123.88C167.161 128.483 189.582 111.751 191.255 113.576C193.355 115.865 197.005 116.797 199.282 119.784C211.432 135.728 211.923 140.152 230.053 150.278C234.114 152.547 237.195 145.767 239.356 143.647C247.012 136.136 249.225 138.338 254.284 133.996C259.701 129.346 271.397 98.7054 280.837 103.98C298.238 113.699 302.612 139.379 311.312 155.501C321.933 175.18 330.696 146.457 340.12 153.357C346.409 157.961 352.831 154.83 363.521 150.413C370.165 147.668 384.035 173.894 389.123 168.654C404.546 152.734 401.334 151.676 410.801 169.92C415.287 159.589 426.842 139.813 437.174 143.363C447.506 146.912 460.319 153.15 465.434 155.826C472.497 161.165 488.86 169.986 497.808 162.561C508.993 153.279 537.475 129.098 543.87 134.463C550.266 139.827 573.148 146.042 578.364 135.142C583.579 124.243 593.422 106.934 597.402 108.012C601.381 109.091 614.073 124.844 617.083 124.403C620.092 123.962 634.922 132.756 647.656 121.005C657.843 111.603 663.629 130.988 665.248 141.855C669.688 144.943 696.567 125.969 696.567 125.969C698.956 123.182 704.67 120.828 708.417 133.704C712.164 146.58 720.159 146.938 723.688 145.507C727.598 150.085 739.35 157.718 755.073 151.627C770.796 145.535 778.511 138.086 780.403 135.122C783.138 131.676 789.7 125.204 794.068 126.89C799.528 128.998 810.907 135.223 815.465 132.313C820.024 129.402 828.081 126.56 838.934 108.77C847.616 94.5386 858.568 102.156 862.959 107.743C865.683 113.298 872.933 124.343 880.14 124.085C889.148 123.762 904.734 119.569 905.852 113.589C906.746 108.806 912.059 120.046 914.604 126.264C915.58 135.952 920.125 155.679 930.5 157.083C940.874 158.488 944.513 156.526 945.036 155.37C954.544 155.057 973.792 152.835 974.718 146.452C975.644 140.069 992.146 141.795 1000.28 143.456C1003.79 143.191 1010.87 139.163 1011.14 125.166C1011.42 111.169 1012.43 110.688 1012.9 112.198C1015.14 108.741 1021.11 101.558 1027.13 100.476C1033.16 99.3946 1041.18 106.921 1044.43 110.819L1051.93 136.472C1053.38 139.167 1080.97 134.543 1080.97 134.543C1085.16 133.792 1093.89 133.598 1095.39 138.828C1097.26 145.366 1118.02 157.778 1125.54 156.926C1133.06 156.074 1137.06 156.152 1145.19 149.311C1151.7 143.839 1158.66 142.909 1161.32 143.128C1163.97 135.345 1170.77 120.21 1176.74 121.927C1182.71 123.645 1192.19 141.569 1196.18 150.316C1198.74 156.034 1205.85 167.31 1213.87 166.668C1221.88 166.025 1233.18 151.045 1237.82 143.635C1238.6 138.149 1240.78 125.79 1243.29 120.238C1246.42 113.299 1254.22 98.4492 1257.22 98.5083C1260.22 98.5674 1268.4 114.732 1273.43 113.331C1278.46 111.929 1292.95 112.215 1314.55 82.1346C1317.52 92.0284 1324.97 111.946 1330.96 112.464C1338.45 113.111 1333.13 129.01 1347.68 126.796C1362.22 124.582 1375.41 115.34 1378.29 121.398C1380.59 126.244 1394.59 140.056 1401.3 146.356C1404.23 150.081 1412.5 156.579 1422.18 152.769C1431.86 148.958 1434.37 143.34 1434.41 141.007C1438.61 139.423 1447.41 136.162 1449.02 135.794C1451.03 135.333 1460.17 103.007 1464.59 107.095C1468.12 110.365 1473.52 119.273 1475.77 123.318C1480.01 136.738 1489.78 163.602 1494.98 163.705C1501.48 163.833 1507.86 169.96 1518.06 159.659C1526.23 151.418 1532.07 159.435 1533.97 164.473" stroke="#F1E1B4" stroke-width="0.75"/>
<path d="M13.5854 169.023C21.4728 149.255 35.1006 142.988 45.0484 130.042C52.7185 120.291 48.5084 105.494 56.1046 95.7749C60.7104 89.8824 63.6798 78.4761 70.6863 75.5818C84.4503 69.8971 83.4348 110.021 106.477 80.542C109.421 76.7752 122.085 58.4053 129.217 58.2824C129.693 58.275 130.143 58.3486 130.564 58.5123C142.193 63.0291 142.974 73.9031 147.861 82.9596C149.227 85.4912 161.954 103.914 163.301 105.384C167.525 109.987 189.945 93.2552 191.619 95.0799C193.718 97.3684 197.368 98.3008 199.645 101.288C211.796 117.232 212.286 121.656 230.416 131.782C234.477 134.051 237.558 127.271 239.72 125.151C247.376 117.639 249.588 119.842 254.647 115.499C260.065 110.85 271.76 80.2093 281.201 85.4841C298.602 95.2034 302.975 120.883 311.676 137.005C322.296 156.684 331.059 127.961 340.483 134.861C346.773 139.465 353.195 136.333 363.884 131.917C370.529 129.172 384.398 155.398 389.487 150.158C404.909 134.238 401.698 133.18 411.164 151.424C415.65 141.093 427.205 121.317 437.538 124.866C447.87 128.416 460.683 134.654 465.797 137.33C472.86 142.669 489.223 151.49 498.171 144.065C509.356 134.783 537.838 110.602 544.234 115.967C550.629 121.331 573.511 127.546 578.727 116.646C583.943 105.747 593.785 88.4374 597.765 89.516C601.745 90.5946 614.437 106.348 617.446 105.907C620.455 105.466 635.285 114.26 648.019 102.509C658.206 93.1074 663.992 112.492 665.611 123.359C670.051 126.447 696.93 107.473 696.93 107.473C699.319 104.686 705.033 102.332 708.78 115.208C712.527 128.084 720.522 128.442 724.051 127.011C727.961 131.589 739.713 139.222 755.436 133.131C771.159 127.039 778.874 119.59 780.766 116.626C783.502 113.18 790.064 106.708 794.431 108.394C799.891 110.502 811.27 116.727 815.829 113.816C820.387 110.906 828.444 108.064 839.297 90.2742C847.979 76.0425 858.931 83.6597 863.322 89.2473C866.046 94.802 873.297 105.847 880.503 105.589C889.511 105.266 905.097 101.073 906.215 95.0934C907.109 90.3101 912.422 101.55 914.967 107.768C915.943 117.456 920.489 137.183 930.863 138.587C941.237 139.992 944.877 138.03 945.4 136.873C954.908 136.561 974.155 134.339 975.081 127.956C976.007 121.573 992.509 123.299 1000.64 124.959C1004.15 124.695 1011.23 120.667 1011.51 106.67C1011.78 92.6726 1012.79 92.1924 1013.26 93.7019C1015.5 90.2453 1021.47 83.0616 1027.5 81.98C1033.52 80.8985 1041.54 88.4246 1044.8 92.3228L1052.29 117.975C1053.74 120.671 1081.34 116.047 1081.34 116.047C1085.52 115.296 1094.26 115.102 1095.75 120.332C1097.63 126.87 1118.39 139.282 1125.9 138.43C1133.42 137.578 1137.42 137.656 1145.56 130.815C1152.07 125.342 1159.02 124.413 1161.68 124.632C1164.34 116.849 1171.14 101.713 1177.1 103.431C1183.07 105.149 1192.55 123.073 1196.55 131.82C1199.1 137.538 1206.21 148.814 1214.23 148.171C1222.24 147.529 1233.54 132.549 1238.19 125.139C1238.96 119.653 1241.14 107.294 1243.65 101.742C1246.79 94.8024 1254.58 79.9531 1257.58 80.0122C1260.58 80.0713 1268.76 96.2356 1273.79 94.8344C1278.82 93.4332 1293.32 93.7188 1314.91 63.6385C1317.89 73.5323 1325.33 93.4494 1331.32 93.9675C1338.81 94.6152 1333.49 110.514 1348.04 108.3C1362.59 106.086 1375.77 96.8438 1378.65 102.902C1380.96 107.748 1394.96 121.56 1401.67 127.86C1404.59 131.585 1412.87 138.083 1422.54 134.272C1432.22 130.462 1434.73 124.844 1434.78 122.511C1438.98 120.927 1447.78 117.666 1449.38 117.298C1451.39 116.837 1460.53 84.5111 1464.95 88.599C1468.49 91.8693 1473.88 100.777 1476.13 104.822C1480.37 118.242 1490.14 145.106 1495.34 145.209C1501.84 145.337 1508.22 151.464 1518.43 141.163C1526.59 132.922 1532.43 140.938 1534.33 145.977" stroke="#F1E1B4"/>
<defs>
<linearGradient id="paint0_linear_116_79" x1="774" y1="119" x2="774" y2="3450" gradientUnits="userSpaceOnUse">
<stop stop-color="#0A2D6E"/>
<stop offset="0.393336" stop-color="#7E74CD"/>
<stop offset="1" stop-color="#0A2D6E"/>
</linearGradient>
</defs>
</svg>
