<svg viewBox="0 0 608 219" fill="none" xmlns="http://www.w3.org/2000/svg">
<foreignObject x="0" y="37.1201" width="607.627" height="111.52"><div xmlns="http://www.w3.org/1999/xhtml" style="backdrop-filter:blur(2px);clip-path:url(#bgblur_0_112_78_clip_path);height:100%;width:100%"></div></foreignObject><g filter="url(#filter0_d_112_78)" data-figma-bg-blur-radius="4">
<path d="M138.385 44.144L114.961 134H88.4648L74.1288 74.864L59.2808 134H32.7848L10.0008 44.144H33.4248L46.3528 109.552L62.3528 44.144H86.4168L101.777 109.552L114.833 44.144H138.385ZM171.25 44.144V134H149.362V44.144H171.25ZM209 117.104H237.672V134H187.112V44.144H209V117.104ZM281.776 44.144C291.248 44.144 299.525 46.0213 306.608 49.776C313.69 53.5307 319.152 58.8213 322.992 65.648C326.917 72.3893 328.88 80.1973 328.88 89.072C328.88 97.8613 326.917 105.669 322.992 112.496C319.152 119.323 313.648 124.613 306.48 128.368C299.397 132.123 291.162 134 281.776 134H248.112V44.144H281.776ZM280.368 115.056C288.645 115.056 295.088 112.795 299.696 108.272C304.304 103.749 306.608 97.3493 306.608 89.072C306.608 80.7947 304.304 74.352 299.696 69.744C295.088 65.136 288.645 62.832 280.368 62.832H270V115.056H280.368ZM337.4 88.944C337.4 80.0693 339.32 72.176 343.16 65.264C347 58.2667 352.333 52.848 359.16 49.008C366.072 45.0827 373.88 43.12 382.584 43.12C393.25 43.12 402.381 45.936 409.976 51.568C417.57 57.2 422.648 64.88 425.208 74.608H401.144C399.352 70.8533 396.792 67.9947 393.464 66.032C390.221 64.0693 386.509 63.088 382.328 63.088C375.586 63.088 370.125 65.4347 365.944 70.128C361.762 74.8213 359.672 81.0933 359.672 88.944C359.672 96.7947 361.762 103.067 365.944 107.76C370.125 112.453 375.586 114.8 382.328 114.8C386.509 114.8 390.221 113.819 393.464 111.856C396.792 109.893 399.352 107.035 401.144 103.28H425.208C422.648 113.008 417.57 120.688 409.976 126.32C402.381 131.867 393.25 134.64 382.584 134.64C373.88 134.64 366.072 132.72 359.16 128.88C352.333 124.955 347 119.536 343.16 112.624C339.32 105.712 337.4 97.8187 337.4 88.944ZM494.548 118.128H461.012L455.636 134H432.724L465.236 44.144H490.58L523.092 134H499.924L494.548 118.128ZM488.916 101.232L477.78 68.336L466.772 101.232H488.916ZM597.627 44.144V61.68H573.819V134H551.931V61.68H528.123V44.144H597.627Z" fill="url(#paint0_linear_112_78)"/>
</g>
<foreignObject x="218.293" y="150.256" width="169.947" height="68"><div xmlns="http://www.w3.org/1999/xhtml" style="backdrop-filter:blur(2px);clip-path:url(#bgblur_1_112_78_clip_path);height:100%;width:100%"></div></foreignObject><g filter="url(#filter1_d_112_78)" data-figma-bg-blur-radius="4">
<path d="M228.422 195.232C229.872 194.08 230.534 193.547 230.406 193.632C234.587 190.176 237.872 187.339 240.262 185.12C242.694 182.901 244.742 180.576 246.406 178.144C248.07 175.712 248.902 173.344 248.902 171.04C248.902 169.291 248.496 167.925 247.686 166.944C246.875 165.963 245.659 165.472 244.038 165.472C242.416 165.472 241.136 166.091 240.198 167.328C239.302 168.523 238.854 170.229 238.854 172.448H228.294C228.379 168.821 229.147 165.792 230.598 163.36C232.091 160.928 234.032 159.136 236.422 157.984C238.854 156.832 241.542 156.256 244.486 156.256C249.563 156.256 253.382 157.557 255.942 160.16C258.544 162.763 259.846 166.155 259.846 170.336C259.846 174.901 258.288 179.147 255.174 183.072C252.059 186.955 248.091 190.752 243.27 194.464H260.55V203.36H228.422V195.232ZM265.368 180C265.368 172.661 266.776 166.88 269.592 162.656C272.451 158.432 277.038 156.32 283.352 156.32C289.667 156.32 294.232 158.432 297.048 162.656C299.907 166.88 301.336 172.661 301.336 180C301.336 187.424 299.907 193.248 297.048 197.472C294.232 201.696 289.667 203.808 283.352 203.808C277.038 203.808 272.451 201.696 269.592 197.472C266.776 193.248 265.368 187.424 265.368 180ZM290.584 180C290.584 175.691 290.115 172.384 289.176 170.08C288.238 167.733 286.296 166.56 283.352 166.56C280.408 166.56 278.467 167.733 277.528 170.08C276.59 172.384 276.12 175.691 276.12 180C276.12 182.901 276.291 185.312 276.632 187.232C276.974 189.109 277.656 190.645 278.68 191.84C279.747 192.992 281.304 193.568 283.352 193.568C285.4 193.568 286.936 192.992 287.96 191.84C289.027 190.645 289.731 189.109 290.072 187.232C290.414 185.312 290.584 182.901 290.584 180ZM306.734 195.232C308.185 194.08 308.846 193.547 308.718 193.632C312.9 190.176 316.185 187.339 318.574 185.12C321.006 182.901 323.054 180.576 324.718 178.144C326.382 175.712 327.214 173.344 327.214 171.04C327.214 169.291 326.809 167.925 325.998 166.944C325.188 165.963 323.972 165.472 322.35 165.472C320.729 165.472 319.449 166.091 318.51 167.328C317.614 168.523 317.166 170.229 317.166 172.448H306.606C306.692 168.821 307.46 165.792 308.91 163.36C310.404 160.928 312.345 159.136 314.734 157.984C317.166 156.832 319.854 156.256 322.798 156.256C327.876 156.256 331.694 157.557 334.254 160.16C336.857 162.763 338.158 166.155 338.158 170.336C338.158 174.901 336.601 179.147 333.486 183.072C330.372 186.955 326.404 190.752 321.582 194.464H338.862V203.36H306.734V195.232ZM366.785 169.888C366.443 168.309 365.846 167.136 364.993 166.368C364.139 165.557 362.923 165.152 361.345 165.152C358.913 165.152 357.163 166.219 356.097 168.352C355.03 170.443 354.475 173.771 354.433 178.336C355.371 176.843 356.715 175.669 358.465 174.816C360.257 173.963 362.219 173.536 364.353 173.536C368.534 173.536 371.883 174.859 374.401 177.504C376.961 180.149 378.241 183.84 378.241 188.576C378.241 191.691 377.601 194.421 376.321 196.768C375.083 199.115 373.249 200.949 370.817 202.272C368.427 203.595 365.59 204.256 362.305 204.256C355.734 204.256 351.169 202.208 348.609 198.112C346.049 193.973 344.769 188.043 344.769 180.32C344.769 172.213 346.113 166.197 348.801 162.272C351.531 158.304 355.883 156.32 361.857 156.32C365.057 156.32 367.745 156.96 369.921 158.24C372.139 159.477 373.803 161.12 374.913 163.168C376.065 165.216 376.747 167.456 376.961 169.888H366.785ZM361.729 182.176C359.894 182.176 358.358 182.731 357.121 183.84C355.926 184.907 355.329 186.443 355.329 188.448C355.329 190.496 355.883 192.096 356.993 193.248C358.145 194.4 359.766 194.976 361.857 194.976C363.734 194.976 365.206 194.421 366.273 193.312C367.382 192.16 367.937 190.603 367.937 188.64C367.937 186.635 367.403 185.056 366.337 183.904C365.27 182.752 363.734 182.176 361.729 182.176Z" fill="url(#paint1_linear_112_78)"/>
</g>
<defs>
<filter id="filter0_d_112_78" x="0" y="37.1201" width="607.627" height="111.52" filterUnits="userSpaceOnUse" color-interpolation-filters="sRGB">
<feFlood flood-opacity="0" result="BackgroundImageFix"/>
<feColorMatrix in="SourceAlpha" type="matrix" values="0 0 0 0 0 0 0 0 0 0 0 0 0 0 0 0 0 0 127 0" result="hardAlpha"/>
<feOffset dy="4"/>
<feGaussianBlur stdDeviation="5"/>
<feComposite in2="hardAlpha" operator="out"/>
<feColorMatrix type="matrix" values="0 0 0 0 0 0 0 0 0 0 0 0 0 0 0 0 0 0 0.5 0"/>
<feBlend mode="normal" in2="BackgroundImageFix" result="effect1_dropShadow_112_78"/>
<feBlend mode="normal" in="SourceGraphic" in2="effect1_dropShadow_112_78" result="shape"/>
</filter>
<clipPath id="bgblur_0_112_78_clip_path" transform="translate(0 -37.1201)"><path d="M138.385 44.144L114.961 134H88.4648L74.1288 74.864L59.2808 134H32.7848L10.0008 44.144H33.4248L46.3528 109.552L62.3528 44.144H86.4168L101.777 109.552L114.833 44.144H138.385ZM171.25 44.144V134H149.362V44.144H171.25ZM209 117.104H237.672V134H187.112V44.144H209V117.104ZM281.776 44.144C291.248 44.144 299.525 46.0213 306.608 49.776C313.69 53.5307 319.152 58.8213 322.992 65.648C326.917 72.3893 328.88 80.1973 328.88 89.072C328.88 97.8613 326.917 105.669 322.992 112.496C319.152 119.323 313.648 124.613 306.48 128.368C299.397 132.123 291.162 134 281.776 134H248.112V44.144H281.776ZM280.368 115.056C288.645 115.056 295.088 112.795 299.696 108.272C304.304 103.749 306.608 97.3493 306.608 89.072C306.608 80.7947 304.304 74.352 299.696 69.744C295.088 65.136 288.645 62.832 280.368 62.832H270V115.056H280.368ZM337.4 88.944C337.4 80.0693 339.32 72.176 343.16 65.264C347 58.2667 352.333 52.848 359.16 49.008C366.072 45.0827 373.88 43.12 382.584 43.12C393.25 43.12 402.381 45.936 409.976 51.568C417.57 57.2 422.648 64.88 425.208 74.608H401.144C399.352 70.8533 396.792 67.9947 393.464 66.032C390.221 64.0693 386.509 63.088 382.328 63.088C375.586 63.088 370.125 65.4347 365.944 70.128C361.762 74.8213 359.672 81.0933 359.672 88.944C359.672 96.7947 361.762 103.067 365.944 107.76C370.125 112.453 375.586 114.8 382.328 114.8C386.509 114.8 390.221 113.819 393.464 111.856C396.792 109.893 399.352 107.035 401.144 103.28H425.208C422.648 113.008 417.57 120.688 409.976 126.32C402.381 131.867 393.25 134.64 382.584 134.64C373.88 134.64 366.072 132.72 359.16 128.88C352.333 124.955 347 119.536 343.16 112.624C339.32 105.712 337.4 97.8187 337.4 88.944ZM494.548 118.128H461.012L455.636 134H432.724L465.236 44.144H490.58L523.092 134H499.924L494.548 118.128ZM488.916 101.232L477.78 68.336L466.772 101.232H488.916ZM597.627 44.144V61.68H573.819V134H551.931V61.68H528.123V44.144H597.627Z"/>
</clipPath><filter id="filter1_d_112_78" x="218.293" y="150.256" width="169.947" height="68" filterUnits="userSpaceOnUse" color-interpolation-filters="sRGB">
<feFlood flood-opacity="0" result="BackgroundImageFix"/>
<feColorMatrix in="SourceAlpha" type="matrix" values="0 0 0 0 0 0 0 0 0 0 0 0 0 0 0 0 0 0 127 0" result="hardAlpha"/>
<feOffset dy="4"/>
<feGaussianBlur stdDeviation="5"/>
<feComposite in2="hardAlpha" operator="out"/>
<feColorMatrix type="matrix" values="0 0 0 0 0 0 0 0 0 0 0 0 0 0 0 0 0 0 0.5 0"/>
<feBlend mode="normal" in2="BackgroundImageFix" result="effect1_dropShadow_112_78"/>
<feBlend mode="normal" in="SourceGraphic" in2="effect1_dropShadow_112_78" result="shape"/>
</filter>
<clipPath id="bgblur_1_112_78_clip_path" transform="translate(-218.293 -150.256)"><path d="M228.422 195.232C229.872 194.08 230.534 193.547 230.406 193.632C234.587 190.176 237.872 187.339 240.262 185.12C242.694 182.901 244.742 180.576 246.406 178.144C248.07 175.712 248.902 173.344 248.902 171.04C248.902 169.291 248.496 167.925 247.686 166.944C246.875 165.963 245.659 165.472 244.038 165.472C242.416 165.472 241.136 166.091 240.198 167.328C239.302 168.523 238.854 170.229 238.854 172.448H228.294C228.379 168.821 229.147 165.792 230.598 163.36C232.091 160.928 234.032 159.136 236.422 157.984C238.854 156.832 241.542 156.256 244.486 156.256C249.563 156.256 253.382 157.557 255.942 160.16C258.544 162.763 259.846 166.155 259.846 170.336C259.846 174.901 258.288 179.147 255.174 183.072C252.059 186.955 248.091 190.752 243.27 194.464H260.55V203.36H228.422V195.232ZM265.368 180C265.368 172.661 266.776 166.88 269.592 162.656C272.451 158.432 277.038 156.32 283.352 156.32C289.667 156.32 294.232 158.432 297.048 162.656C299.907 166.88 301.336 172.661 301.336 180C301.336 187.424 299.907 193.248 297.048 197.472C294.232 201.696 289.667 203.808 283.352 203.808C277.038 203.808 272.451 201.696 269.592 197.472C266.776 193.248 265.368 187.424 265.368 180ZM290.584 180C290.584 175.691 290.115 172.384 289.176 170.08C288.238 167.733 286.296 166.56 283.352 166.56C280.408 166.56 278.467 167.733 277.528 170.08C276.59 172.384 276.12 175.691 276.12 180C276.12 182.901 276.291 185.312 276.632 187.232C276.974 189.109 277.656 190.645 278.68 191.84C279.747 192.992 281.304 193.568 283.352 193.568C285.4 193.568 286.936 192.992 287.96 191.84C289.027 190.645 289.731 189.109 290.072 187.232C290.414 185.312 290.584 182.901 290.584 180ZM306.734 195.232C308.185 194.08 308.846 193.547 308.718 193.632C312.9 190.176 316.185 187.339 318.574 185.12C321.006 182.901 323.054 180.576 324.718 178.144C326.382 175.712 327.214 173.344 327.214 171.04C327.214 169.291 326.809 167.925 325.998 166.944C325.188 165.963 323.972 165.472 322.35 165.472C320.729 165.472 319.449 166.091 318.51 167.328C317.614 168.523 317.166 170.229 317.166 172.448H306.606C306.692 168.821 307.46 165.792 308.91 163.36C310.404 160.928 312.345 159.136 314.734 157.984C317.166 156.832 319.854 156.256 322.798 156.256C327.876 156.256 331.694 157.557 334.254 160.16C336.857 162.763 338.158 166.155 338.158 170.336C338.158 174.901 336.601 179.147 333.486 183.072C330.372 186.955 326.404 190.752 321.582 194.464H338.862V203.36H306.734V195.232ZM366.785 169.888C366.443 168.309 365.846 167.136 364.993 166.368C364.139 165.557 362.923 165.152 361.345 165.152C358.913 165.152 357.163 166.219 356.097 168.352C355.03 170.443 354.475 173.771 354.433 178.336C355.371 176.843 356.715 175.669 358.465 174.816C360.257 173.963 362.219 173.536 364.353 173.536C368.534 173.536 371.883 174.859 374.401 177.504C376.961 180.149 378.241 183.84 378.241 188.576C378.241 191.691 377.601 194.421 376.321 196.768C375.083 199.115 373.249 200.949 370.817 202.272C368.427 203.595 365.59 204.256 362.305 204.256C355.734 204.256 351.169 202.208 348.609 198.112C346.049 193.973 344.769 188.043 344.769 180.32C344.769 172.213 346.113 166.197 348.801 162.272C351.531 158.304 355.883 156.32 361.857 156.32C365.057 156.32 367.745 156.96 369.921 158.24C372.139 159.477 373.803 161.12 374.913 163.168C376.065 165.216 376.747 167.456 376.961 169.888H366.785ZM361.729 182.176C359.894 182.176 358.358 182.731 357.121 183.84C355.926 184.907 355.329 186.443 355.329 188.448C355.329 190.496 355.883 192.096 356.993 193.248C358.145 194.4 359.766 194.976 361.857 194.976C363.734 194.976 365.206 194.421 366.273 193.312C367.382 192.16 367.937 190.603 367.937 188.64C367.937 186.635 367.403 185.056 366.337 183.904C365.27 182.752 363.734 182.176 361.729 182.176Z"/>
</clipPath><linearGradient id="paint0_linear_112_78" x1="266.738" y1="-112" x2="263.238" y2="134" gradientUnits="userSpaceOnUse">
<stop stop-color="white"/>
<stop offset="1" stop-color="#F6911E"/>
</linearGradient>
<linearGradient id="paint1_linear_112_78" x1="296.738" y1="20.5" x2="297.591" y2="201.33" gradientUnits="userSpaceOnUse">
<stop stop-color="white"/>
<stop offset="1" stop-color="#F6911E"/>
</linearGradient>
</defs>
</svg>
