<svg width="1601" height="275" viewBox="0 0 1601 275" fill="none" xmlns="http://www.w3.org/2000/svg">
<g opacity="0.8">
<path d="M1282.35 0.0025524C1275.22 0.265978 1262.92 18.8818 1260.05 22.7058C1237.59 52.6329 1237.82 12.4969 1224.17 18.4517C1217.22 21.4834 1214.47 32.9461 1209.99 38.9281C1202.58 48.7949 1207.08 63.5061 1199.61 73.4068C1189.92 86.5454 1176.41 93.0797 1168.92 113L1595.42 142C1590.26 133.685 1570.63 96.0621 1566.07 87.5718C1556.25 69.5175 1559.48 70.5125 1544.37 86.7335C1539.39 92.072 1536.39 101.93 1529.8 104.805C1519.2 109.431 1501.46 76.8841 1495.08 72.4045C1485.52 65.6915 1477.33 94.5816 1466.32 75.1154C1457.3 59.1679 1452.42 33.5796 1434.84 24.205C1425.29 19.1172 1414.2 49.9827 1408.88 54.7377C1403.91 59.1785 1401.65 57.0205 1394.14 64.6811C1392.02 66.8439 1389.08 73.6829 1384.97 71.4942C1366.65 61.7274 1366.07 57.3139 1353.61 41.6124C1351.27 38.6707 1347.6 37.8104 1345.46 35.5636C1343.75 33.7723 1321.66 50.9423 1317.35 46.4234C1315.98 44.9809 1302.89 26.8119 1301.47 24.3077C1296.41 15.3492 1295.41 4.49279 1283.7 0.205957C1283.27 0.0505692 1282.82 -0.01412 1282.35 0.0025524Z" fill="#F6911E"/>
<path d="M818.49 27.0019C825.619 27.2024 837.918 41.3702 840.788 44.2805C863.244 67.0569 863.02 36.5109 876.669 41.0429C883.617 43.3502 886.361 52.074 890.85 56.6267C898.253 64.136 893.752 75.332 901.229 82.8672C910.92 92.8664 924.422 97.8394 931.918 113H519.918C525.079 106.672 530.203 100.109 534.763 93.6476C544.587 79.9071 541.355 80.6644 556.461 93.0096C561.446 97.0725 564.449 104.575 571.038 106.763C581.638 110.284 599.378 85.5135 605.757 82.1043C615.315 76.9953 623.51 98.9824 634.516 84.1675C643.532 72.0304 648.411 52.5562 666 45.4215C675.543 41.5494 686.633 65.0399 691.957 68.6588C696.93 72.0385 699.185 70.3961 706.692 76.2263C708.811 77.8723 711.758 83.0773 715.863 81.4115C734.189 73.9784 734.766 70.6194 747.229 58.6696C749.564 56.4308 753.231 55.7761 755.376 54.0661C757.085 52.7028 779.171 65.7703 783.485 62.3311C784.861 61.2333 797.948 47.4055 799.364 45.4997C804.428 38.6817 805.423 30.4193 817.139 27.1567C817.563 27.0385 818.015 26.9893 818.49 27.0019Z" fill="#F6911E"/>
<path d="M995.346 27.0019C988.217 27.2024 975.918 41.3702 973.048 44.2805C973.048 82.8672 966.567 64.1268 952.918 68.6588C945.97 70.9661 941.656 71.6736 937.167 76.2263C929.764 83.7356 920.083 75.332 912.607 82.8672C902.916 92.8664 889.414 97.8394 881.918 113H1293.92C1288.76 106.672 1283.63 100.109 1279.07 93.6476C1269.25 79.9071 1272.48 80.6644 1257.37 93.0096C1252.39 97.0725 1249.39 104.575 1242.8 106.763C1232.2 110.284 1214.46 85.5135 1208.08 82.1043C1198.52 76.9953 1190.33 98.9824 1179.32 84.1675C1170.3 72.0304 1165.42 52.5562 1147.84 45.4215C1138.29 41.5494 1127.2 65.0399 1121.88 68.6588C1116.91 72.0385 1114.65 70.3961 1107.14 76.2263C1105.02 77.8723 1102.08 83.0773 1097.97 81.4115C1079.65 73.9784 1079.07 70.6194 1066.61 58.6696C1064.27 56.4308 1060.6 55.7761 1058.46 54.0661C1056.75 52.7028 1034.66 65.7703 1030.35 62.3311C1028.98 61.2333 1022.83 39.4059 1021.42 37.5C1016.35 30.6821 1008.41 30.4193 996.697 27.1567C996.273 27.0385 995.821 26.9893 995.346 27.0019Z" fill="#F6911E"/>
<path d="M564.49 27.0019C571.619 27.2024 583.918 41.3702 586.788 44.2805C609.244 67.0569 609.02 36.5109 622.669 41.0429C629.617 43.3502 632.361 52.074 636.85 56.6267C644.253 64.136 639.752 75.332 647.229 82.8672C656.92 92.8664 670.422 97.8394 677.918 113H265.918C271.079 106.672 276.203 100.109 280.763 93.6476C290.587 79.9071 302.812 59.6548 317.918 72C322.902 76.063 327.329 66.4707 333.918 68.6588C344.518 72.1796 345.378 85.5135 351.757 82.1043C361.315 76.9953 369.51 98.9824 380.516 84.1675C389.532 72.0304 391.329 69.4658 408.918 62.3311C418.461 58.459 432.633 65.0399 437.957 68.6588C442.93 72.0385 445.185 70.3961 452.692 76.2263C454.811 77.8723 457.758 83.0773 461.863 81.4115C480.189 73.9784 480.766 70.6194 493.229 58.6696C495.564 56.4308 499.231 55.7761 501.376 54.0661C503.085 52.7028 525.171 65.7703 529.485 62.3311C530.861 61.2333 543.948 47.4055 545.364 45.4997C550.428 38.6817 551.423 30.4193 563.139 27.1567C563.563 27.0385 564.015 26.9893 564.49 27.0019Z" fill="#F6911E"/>
<path d="M101.346 0.0025524C94.2174 0.265978 81.9181 18.8818 79.0482 22.7058C56.5915 52.6329 56.8164 12.4969 43.167 18.4517C36.2189 21.4834 33.4748 32.9461 28.986 38.9281C21.5827 48.7949 26.0835 63.5061 18.607 73.4068C8.91608 86.5454 8.41439 122.08 0.917969 142L399.918 113C394.757 104.685 389.633 96.0621 385.073 87.5718C375.249 69.5175 378.481 70.5125 363.375 86.7335C358.39 92.072 355.387 101.93 348.798 104.805C338.198 109.431 320.458 76.8841 314.079 72.4045C304.521 65.6915 296.325 94.5816 285.32 75.1154C276.303 59.1679 271.425 33.5796 253.835 24.205C244.293 19.1172 233.203 49.9827 227.879 54.7377C222.906 59.1785 220.651 57.0205 213.144 64.6811C211.025 66.8439 208.078 73.6829 203.973 71.4942C185.647 61.7274 185.069 57.3139 172.607 41.6124C170.272 38.6707 166.605 37.8104 164.46 35.5636C162.751 33.7723 140.664 50.9423 136.351 46.4234C134.975 44.9809 121.887 26.8119 120.472 24.3077C115.408 15.3492 114.413 4.49279 102.697 0.205957C102.273 0.0505692 101.821 -0.01412 101.346 0.0025524Z" fill="#F6911E"/>
</g>
<g opacity="0.8">
<path d="M1289.35 18.0026C1282.22 18.266 1269.92 36.8818 1267.05 40.7058C1244.59 70.6329 1244.82 30.4969 1231.17 36.4517C1224.22 39.4834 1221.47 50.9461 1216.99 56.9281C1209.58 66.7949 1214.08 81.5061 1206.61 91.4068C1196.92 104.545 1183.41 111.08 1175.92 131L1597.92 142C1592.76 133.685 1577.63 114.062 1573.07 105.572C1563.25 87.5175 1566.48 88.5125 1551.37 104.733C1546.39 110.072 1543.39 119.93 1536.8 122.805C1526.2 127.431 1508.46 94.8841 1502.08 90.4045C1492.52 83.6915 1484.33 112.582 1473.32 93.1154C1464.3 77.1679 1459.42 51.5796 1441.84 42.205C1432.29 37.1172 1421.2 67.9827 1415.88 72.7377C1410.91 77.1785 1408.65 75.0205 1401.14 82.6811C1399.02 84.8439 1396.08 91.6829 1391.97 89.4942C1373.65 79.7274 1373.07 75.3139 1360.61 59.6124C1358.27 56.6707 1354.6 55.8104 1352.46 53.5636C1350.75 51.7723 1328.66 68.9423 1324.35 64.4234C1322.98 62.9809 1309.89 44.8119 1308.47 42.3077C1303.41 33.3492 1302.41 22.4928 1290.7 18.206C1290.27 18.0506 1289.82 17.9859 1289.35 18.0026Z" fill="#35378D"/>
<path d="M825.49 45.0019C832.619 45.2024 844.918 59.3702 847.788 62.2805C870.244 85.0569 870.02 54.5109 883.669 59.0429C890.617 61.3502 893.361 70.074 897.85 74.6267C905.253 82.136 900.752 93.332 908.229 100.867C917.92 110.866 931.422 115.839 938.918 131H526.918C532.079 124.672 537.203 118.109 541.763 111.648C551.587 97.9071 548.355 98.6644 563.461 111.01C568.446 115.073 571.449 122.575 578.038 124.763C588.638 128.284 606.378 103.514 612.757 100.104C622.315 94.9953 630.51 116.982 641.516 102.168C650.532 90.0304 655.411 70.5562 673 63.4215C682.543 59.5494 693.633 83.0399 698.957 86.6588C703.93 90.0385 706.185 88.3961 713.692 94.2263C715.811 95.8723 718.758 101.077 722.863 99.4115C741.189 91.9784 741.766 88.6194 754.229 76.6696C756.564 74.4308 760.231 73.7761 762.376 72.0661C764.085 70.7028 786.171 83.7703 790.485 80.3311C791.861 79.2333 804.948 65.4055 806.364 63.4997C811.428 56.6817 812.423 48.4193 824.139 45.1567C824.563 45.0385 825.015 44.9893 825.49 45.0019Z" fill="#35378D"/>
<path d="M1002.35 45.0019C995.217 45.2024 982.918 59.3702 980.048 62.2805C980.048 100.867 973.567 82.1268 959.918 86.6588C952.97 88.9661 948.656 89.6736 944.167 94.2263C936.764 101.736 927.083 93.332 919.607 100.867C909.916 110.866 896.414 115.839 888.918 131H1300.92C1295.76 124.672 1290.63 118.109 1286.07 111.648C1276.25 97.9071 1279.48 98.6644 1264.37 111.01C1259.39 115.073 1256.39 122.575 1249.8 124.763C1239.2 128.284 1221.46 103.514 1215.08 100.104C1205.52 94.9953 1197.33 116.982 1186.32 102.168C1177.3 90.0304 1172.42 70.5562 1154.84 63.4215C1145.29 59.5494 1134.2 83.0399 1128.88 86.6588C1123.91 90.0385 1121.65 88.3961 1114.14 94.2263C1112.02 95.8723 1109.08 101.077 1104.97 99.4115C1086.65 91.9784 1086.07 88.6194 1073.61 76.6696C1071.27 74.4308 1067.6 73.7761 1065.46 72.0661C1063.75 70.7028 1041.66 83.7703 1037.35 80.3311C1035.98 79.2333 1029.83 57.4059 1028.42 55.5C1023.35 48.6821 1015.41 48.4193 1003.7 45.1567C1003.27 45.0385 1002.82 44.9893 1002.35 45.0019Z" fill="#35378D"/>
<path d="M571.49 45.0019C578.619 45.2024 590.918 59.3702 593.788 62.2805C616.244 85.0569 616.02 54.5109 629.669 59.0429C636.617 61.3502 639.361 70.074 643.85 74.6267C651.253 82.136 646.752 93.332 654.229 100.867C663.92 110.866 677.422 115.839 684.918 131H272.918C278.079 124.672 283.203 118.109 287.763 111.648C297.587 97.9071 309.812 77.6548 324.918 90C329.902 94.063 334.329 84.4707 340.918 86.6588C351.518 90.1796 352.378 103.514 358.757 100.104C368.315 94.9953 376.51 116.982 387.516 102.168C396.532 90.0304 398.329 87.4658 415.918 80.3311C425.461 76.459 439.633 83.0399 444.957 86.6588C449.93 90.0385 452.185 88.3961 459.692 94.2263C461.811 95.8723 464.758 101.077 468.863 99.4115C487.189 91.9784 487.766 88.6194 500.229 76.6696C502.564 74.4308 506.231 73.7761 508.376 72.0661C510.085 70.7028 532.171 83.7703 536.485 80.3311C537.861 79.2333 550.948 65.4055 552.364 63.4997C557.428 56.6817 558.423 48.4193 570.139 45.1567C570.563 45.0385 571.015 44.9893 571.49 45.0019Z" fill="#35378D"/>
<path d="M108.346 18.0026C101.217 18.266 88.9181 36.8818 86.0482 40.7058C63.5915 70.6329 63.8164 30.4969 50.167 36.4517C43.2189 39.4834 40.4748 50.9461 35.986 56.9281C28.5827 66.7949 33.0835 81.5061 25.607 91.4068C15.9161 104.545 8.41439 122.08 0.917969 142L406.918 131C401.757 122.685 396.633 114.062 392.073 105.572C382.249 87.5175 385.481 88.5125 370.375 104.733C365.39 110.072 362.387 119.93 355.798 122.805C345.198 127.431 327.458 94.8841 321.079 90.4045C311.521 83.6915 303.325 112.582 292.32 93.1154C283.303 77.1679 278.425 51.5796 260.835 42.205C251.293 37.1172 240.203 67.9827 234.879 72.7377C229.906 77.1785 227.651 75.0205 220.144 82.6811C218.025 84.8439 215.078 91.6829 210.973 89.4942C192.647 79.7274 192.069 75.3139 179.607 59.6124C177.272 56.6707 173.605 55.8104 171.46 53.5636C169.751 51.7723 147.664 68.9423 143.351 64.4234C141.975 62.9809 128.887 44.8119 127.472 42.3077C122.408 33.3492 121.413 22.4928 109.697 18.206C109.273 18.0506 108.821 17.9859 108.346 18.0026Z" fill="#35378D"/>
</g>
<path d="M1299.35 29.0026C1292.22 29.266 1279.92 47.8818 1277.05 51.7058C1254.59 81.6329 1254.82 41.4969 1241.17 47.4517C1234.22 50.4834 1231.47 61.9461 1226.99 67.9281C1219.58 77.7949 1224.08 92.5061 1216.61 102.407C1206.92 115.545 1193.41 122.08 1185.92 142H1597.92C1592.76 133.685 1587.63 125.062 1583.07 116.572C1573.25 98.5175 1576.48 99.5125 1561.37 115.733C1556.39 121.072 1553.39 130.93 1546.8 133.805C1536.2 138.431 1518.46 105.884 1512.08 101.404C1502.52 94.6915 1494.33 123.582 1483.32 104.115C1474.3 88.1679 1469.42 62.5796 1451.84 53.205C1442.29 48.1172 1431.2 78.9827 1425.88 83.7377C1420.91 88.1785 1418.65 86.0205 1411.14 93.6811C1409.02 95.8439 1406.08 102.683 1401.97 100.494C1383.65 90.7274 1383.07 86.3139 1370.61 70.6124C1368.27 67.6707 1364.6 66.8104 1362.46 64.5636C1360.75 62.7723 1338.66 79.9423 1334.35 75.4234C1332.98 73.9809 1319.89 55.8119 1318.47 53.3077C1313.41 44.3492 1312.41 33.4928 1300.7 29.206C1300.27 29.0506 1299.82 28.9859 1299.35 29.0026Z" fill="#0A2D6E"/>
<path d="M835.49 56.0019C842.619 56.2024 854.918 70.3702 857.788 73.2805C880.244 96.0569 880.02 65.5109 893.669 70.0429C900.617 72.3502 903.361 81.074 907.85 85.6267C915.253 93.136 910.752 104.332 918.229 111.867C927.92 121.866 941.422 126.839 948.918 142H536.918C542.079 135.672 547.203 129.109 551.763 122.648C561.587 108.907 558.355 109.664 573.461 122.01C578.446 126.073 581.449 133.575 588.038 135.763C598.638 139.284 616.378 114.514 622.757 111.104C632.315 105.995 640.51 127.982 651.516 113.168C660.532 101.03 665.411 81.5562 683 74.4215C692.543 70.5494 703.633 94.0399 708.957 97.6588C713.93 101.039 716.185 99.3961 723.692 105.226C725.811 106.872 728.758 112.077 732.863 110.411C751.189 102.978 751.766 99.6194 764.229 87.6696C766.564 85.4308 770.231 84.7761 772.376 83.0661C774.085 81.7028 796.171 94.7703 800.485 91.3311C801.861 90.2333 814.948 76.4055 816.364 74.4997C821.428 67.6817 822.423 59.4193 834.139 56.1567C834.563 56.0385 835.015 55.9893 835.49 56.0019Z" fill="#0A2D6E"/>
<path d="M1012.35 56.0019C1005.22 56.2024 992.918 70.3702 990.048 73.2805C990.048 111.867 983.567 93.1268 969.918 97.6588C962.97 99.9661 958.656 100.674 954.167 105.226C946.764 112.736 937.083 104.332 929.607 111.867C919.916 121.866 906.414 126.839 898.918 142H1310.92C1305.76 135.672 1300.63 129.109 1296.07 122.648C1286.25 108.907 1289.48 109.664 1274.37 122.01C1269.39 126.073 1266.39 133.575 1259.8 135.763C1249.2 139.284 1231.46 114.514 1225.08 111.104C1215.52 105.995 1207.33 127.982 1196.32 113.168C1187.3 101.03 1182.42 81.5562 1164.84 74.4215C1155.29 70.5494 1144.2 94.0399 1138.88 97.6588C1133.91 101.039 1131.65 99.3961 1124.14 105.226C1122.02 106.872 1119.08 112.077 1114.97 110.411C1096.65 102.978 1096.07 99.6194 1083.61 87.6696C1081.27 85.4308 1077.6 84.7761 1075.46 83.0661C1073.75 81.7028 1051.66 94.7703 1047.35 91.3311C1045.98 90.2333 1039.83 68.4059 1038.42 66.5C1033.35 59.6821 1025.41 59.4193 1013.7 56.1567C1013.27 56.0385 1012.82 55.9893 1012.35 56.0019Z" fill="#0A2D6E"/>
<path d="M581.49 56.0019C588.619 56.2024 600.918 70.3702 603.788 73.2805C626.244 96.0569 626.02 65.5109 639.669 70.0429C646.617 72.3502 649.361 81.074 653.85 85.6267C661.253 93.136 656.752 104.332 664.229 111.867C673.92 121.866 687.422 126.839 694.918 142H282.918C288.079 135.672 293.203 129.109 297.763 122.648C307.587 108.907 319.812 88.6548 334.918 101C339.902 105.063 344.329 95.4707 350.918 97.6588C361.518 101.18 362.378 114.514 368.757 111.104C378.315 105.995 386.51 127.982 397.516 113.168C406.532 101.03 408.329 98.4658 425.918 91.3311C435.461 87.459 449.633 94.0399 454.957 97.6588C459.93 101.039 462.185 99.3961 469.692 105.226C471.811 106.872 474.758 112.077 478.863 110.411C497.189 102.978 497.766 99.6194 510.229 87.6696C512.564 85.4308 516.231 84.7761 518.376 83.0661C520.085 81.7028 542.171 94.7703 546.485 91.3311C547.861 90.2333 560.948 76.4055 562.364 74.4997C567.428 67.6817 568.423 59.4193 580.139 56.1567C580.563 56.0385 581.015 55.9893 581.49 56.0019Z" fill="#0A2D6E"/>
<path d="M118.346 29.0026C111.218 29.266 98.9185 47.8818 96.0486 51.7058C73.5919 81.6329 73.8168 41.4969 60.1674 47.4517C53.2193 50.4834 50.4752 61.9461 45.9864 67.9281C38.5831 77.7949 43.0839 92.5061 35.6074 102.407C25.9165 115.545 8.41439 122.08 0.917969 142H416.918C411.758 133.685 406.633 125.062 402.073 116.572C392.249 98.5175 395.481 99.5125 380.375 115.733C375.391 121.072 372.388 130.93 365.799 133.805C355.198 138.431 337.459 105.884 331.079 101.404C321.522 94.6915 313.326 123.582 302.32 104.115C293.304 88.1679 288.425 62.5796 270.836 53.205C261.293 48.1172 250.204 78.9827 244.879 83.7377C239.907 88.1785 237.651 86.0205 230.145 93.6811C228.025 95.8439 225.078 102.683 220.973 100.494C202.647 90.7274 202.07 86.3139 189.608 70.6124C187.272 67.6707 183.605 66.8104 181.46 64.5636C179.752 62.7723 157.665 79.9423 153.352 75.4234C151.976 73.9809 138.888 55.8119 137.473 53.3077C132.408 44.3492 131.413 33.4928 119.697 29.206C119.273 29.0506 118.821 28.9859 118.346 29.0026Z" fill="#0A2D6E"/>
<path d="M0.0463207 243.009C7.93371 223.24 21.5615 216.973 31.5094 204.028C39.1794 194.276 34.9693 179.479 42.5655 169.76C47.1713 163.868 50.1407 152.461 57.1472 149.567C70.9113 143.882 69.8957 184.006 92.9376 154.527C95.8823 150.761 108.546 132.391 115.678 132.268C116.153 132.26 116.604 132.334 117.025 132.498C128.654 137.014 129.435 147.888 134.322 156.945C135.688 159.477 148.415 177.9 149.762 179.369C153.986 183.972 176.406 167.241 178.079 169.065C180.179 171.354 183.829 172.286 186.106 175.273C198.257 191.217 198.747 195.641 216.877 205.767C220.938 208.036 224.019 201.257 226.181 199.136C233.836 191.625 236.049 193.827 241.108 189.485C246.525 184.836 258.221 154.195 267.661 159.469C285.063 169.189 289.436 194.868 298.137 210.99C308.757 230.669 317.52 201.946 326.944 208.846C333.234 213.451 339.656 210.319 350.345 205.902C356.989 203.158 370.859 229.383 375.948 224.144C391.37 208.223 388.159 207.165 397.625 225.409C402.111 215.078 413.666 195.303 423.998 198.852C434.331 202.401 447.143 208.64 452.258 211.315C459.321 216.654 475.684 225.475 484.632 218.05C495.817 208.769 524.299 184.587 530.694 189.952C537.09 195.317 559.972 201.531 565.188 190.632C570.404 179.732 580.246 162.423 584.226 163.501C588.205 164.58 600.898 180.333 603.907 179.892C606.916 179.451 621.746 188.245 634.48 176.494C644.667 167.093 650.453 186.477 652.072 197.344C656.512 200.433 683.391 181.458 683.391 181.458C685.78 178.672 691.494 176.317 695.241 189.193C698.988 202.07 706.983 202.427 710.512 200.996C714.422 205.574 726.174 213.207 741.897 207.116C757.62 201.024 765.335 193.575 767.227 190.612C769.962 187.165 776.525 180.693 780.892 182.379C786.352 184.487 797.731 190.713 802.29 187.802C806.848 184.891 814.905 182.049 825.758 164.26C834.44 150.028 845.392 157.645 849.783 163.233C852.507 168.787 859.758 179.832 866.964 179.574C875.972 179.252 891.558 175.058 892.676 169.079C893.57 164.295 898.883 175.536 901.428 181.754C902.404 191.441 906.95 211.168 917.324 212.573C927.698 213.977 931.338 212.015 931.86 210.859C941.368 210.546 960.616 208.325 961.542 201.942C962.468 195.559 978.97 197.284 987.106 198.945C990.612 198.68 997.692 194.652 997.968 180.655C998.244 166.658 999.254 166.178 999.724 167.687C1001.96 164.231 1007.94 157.047 1013.96 155.965C1019.98 154.884 1028 162.41 1031.26 166.308L1038.75 191.961C1040.2 194.657 1067.8 190.033 1067.8 190.033C1071.98 189.282 1080.72 189.087 1082.22 194.317C1084.09 200.856 1104.85 213.267 1112.36 212.415C1119.88 211.563 1123.88 211.642 1132.02 204.801C1138.53 199.328 1145.48 198.398 1148.14 198.617C1150.8 190.835 1157.6 175.699 1163.56 177.417C1169.53 179.135 1179.01 197.058 1183.01 205.805C1185.56 211.523 1192.68 222.799 1200.69 222.157C1208.7 221.515 1220 206.534 1224.65 199.124C1225.42 193.638 1227.6 181.279 1230.11 175.727C1233.25 168.788 1241.04 153.938 1244.04 153.998C1247.04 154.057 1255.22 170.221 1260.25 168.82C1265.28 167.419 1279.78 167.704 1301.37 137.624C1304.35 147.518 1311.79 167.435 1317.78 167.953C1325.27 168.601 1319.96 184.499 1334.5 182.285C1349.05 180.071 1362.23 170.829 1365.11 176.887C1367.42 181.733 1381.42 195.545 1388.13 201.845C1391.05 205.57 1399.33 212.068 1409 208.258C1418.68 204.448 1421.19 198.829 1421.24 196.496C1425.44 194.912 1434.24 191.652 1435.84 191.283C1437.85 190.823 1446.99 158.496 1451.41 162.584C1454.95 165.855 1460.34 174.763 1462.59 178.808C1466.83 192.227 1476.6 219.092 1481.8 219.194C1488.3 219.322 1494.68 225.449 1504.89 215.148C1513.05 206.907 1518.89 214.924 1520.8 219.962C1530.67 222.142 1552.82 223.6 1562.42 212C1565.25 207.833 1571.22 200.9 1572.42 206.5C1573.92 213.5 1590.92 223.038 1597.42 221.5" stroke="#F1E1B4" stroke-width="0.1"/>
<path d="M0.409602 224.513C8.29699 204.744 21.9248 198.477 31.8726 185.532C39.5427 175.78 35.3326 160.983 42.9288 151.264C47.5346 145.372 50.504 133.965 57.5105 131.071C71.2745 125.386 70.259 165.51 93.3009 136.031C96.2455 132.264 108.909 113.895 116.041 113.772C116.517 113.764 116.967 113.838 117.388 114.002C129.018 118.518 129.798 129.392 134.685 138.449C136.051 140.98 148.778 159.404 150.126 160.873C154.349 165.476 176.77 148.745 178.443 150.569C180.543 152.858 184.192 153.79 186.469 156.777C198.62 172.721 199.11 177.145 217.24 187.271C221.301 189.54 224.382 182.761 226.544 180.64C234.2 173.129 236.413 175.331 241.472 170.989C246.889 166.34 258.584 135.699 268.025 140.973C285.426 150.693 289.8 176.372 298.5 192.494C309.12 212.173 317.883 183.45 327.307 190.35C333.597 194.955 340.019 191.823 350.709 187.406C357.353 184.662 371.222 210.887 376.311 205.648C391.734 189.727 388.522 188.669 397.988 206.913C402.474 196.582 414.03 176.807 424.362 180.356C434.694 183.905 447.507 190.144 452.622 192.819C459.685 198.158 476.047 206.979 484.995 199.554C496.18 190.272 524.662 166.091 531.058 171.456C537.453 176.821 560.335 183.035 565.551 172.135C570.767 161.236 580.61 143.927 584.589 145.005C588.569 146.084 601.261 161.837 604.27 161.396C607.279 160.955 622.109 169.749 634.843 157.998C645.03 148.597 650.816 167.981 652.436 178.848C656.876 181.936 683.755 162.962 683.755 162.962C686.143 160.175 691.858 157.821 695.605 170.697C699.352 183.574 707.346 183.931 710.875 182.5C714.786 187.078 726.538 194.711 742.261 188.62C757.984 182.528 765.699 175.079 767.591 172.116C770.326 168.669 776.888 162.197 781.255 163.883C786.715 165.991 798.095 172.216 802.653 169.306C807.211 166.395 815.269 163.553 826.121 145.763C834.803 131.532 845.755 139.149 850.146 144.737C852.87 150.291 860.121 161.336 867.327 161.078C876.336 160.756 891.921 156.562 893.039 150.583C893.934 145.799 899.247 157.04 901.791 163.258C902.767 172.945 907.313 192.672 917.687 194.077C928.062 195.481 931.701 193.519 932.224 192.363C941.732 192.05 960.979 189.829 961.905 183.446C962.831 177.063 979.334 178.788 987.469 180.449C990.975 180.184 998.056 176.156 998.332 162.159C998.607 148.162 999.617 147.682 1000.09 149.191C1002.32 145.735 1008.3 138.551 1014.32 137.469C1020.34 136.388 1028.36 143.914 1031.62 147.812L1039.12 173.465C1040.56 176.16 1068.16 171.537 1068.16 171.537C1072.34 170.785 1081.08 170.591 1082.58 175.821C1084.45 182.36 1105.21 194.771 1112.73 193.919C1120.25 193.067 1124.25 193.146 1132.38 186.305C1138.89 180.832 1145.84 179.902 1148.51 180.121C1151.16 172.338 1157.96 157.203 1163.93 158.921C1169.89 160.639 1179.38 178.562 1183.37 187.309C1185.93 193.027 1193.04 204.303 1201.05 203.661C1209.07 203.018 1220.36 188.038 1225.01 180.628C1225.79 175.142 1227.96 162.783 1230.47 157.231C1233.61 150.292 1241.41 135.442 1244.4 135.501C1247.4 135.561 1255.59 151.725 1260.62 150.324C1265.64 148.922 1280.14 149.208 1301.74 119.128C1304.71 129.022 1312.15 148.939 1318.14 149.457C1325.63 150.104 1320.32 166.003 1334.86 163.789C1349.41 161.575 1362.6 152.333 1365.48 158.391C1367.78 163.237 1381.78 177.049 1388.49 183.349C1391.42 187.074 1399.69 193.572 1409.37 189.762C1419.04 185.952 1421.56 180.333 1421.6 178C1425.8 176.416 1434.6 173.156 1436.21 172.787C1438.22 172.327 1447.36 140 1451.78 144.088C1455.31 147.359 1460.7 156.266 1462.96 160.312C1467.19 173.731 1476.97 200.595 1482.17 200.698C1488.66 200.826 1495.05 206.953 1505.25 196.652C1513.41 188.411 1519.26 196.428 1521.16 201.466C1528.91 205.144 1547.72 208.8 1560.92 194C1564.08 191 1570.42 185.4 1570.42 187C1570.42 189 1581.92 211 1597.92 204.5" stroke="#F1E1B4" stroke-width="0.25"/>
<path d="M0.774836 206.016C8.66223 186.247 22.29 179.98 32.2379 167.035C39.9079 157.283 35.6978 142.486 43.294 132.767C47.8998 126.875 50.8692 115.468 57.8757 112.574C71.6398 106.889 70.6243 147.013 93.6661 117.534C96.6108 113.767 109.274 95.3975 116.407 95.2745C116.882 95.2672 117.332 95.3408 117.753 95.5045C129.383 100.021 130.164 110.895 135.05 119.952C136.416 122.483 149.144 140.907 150.491 142.376C154.714 146.979 177.135 130.247 178.808 132.072C180.908 134.361 184.557 135.293 186.834 138.28C198.985 154.224 199.476 158.648 217.605 168.774C221.666 171.043 224.748 164.264 226.909 162.143C234.565 154.632 236.778 156.834 241.837 152.492C247.254 147.842 258.949 117.201 268.39 122.476C285.791 132.196 290.165 157.875 298.865 173.997C309.485 193.676 318.249 164.953 327.672 171.853C333.962 176.458 340.384 173.326 351.074 168.909C357.718 166.164 371.587 192.39 376.676 187.15C392.099 171.23 388.887 170.172 398.354 188.416C402.84 178.085 414.395 158.31 424.727 161.859C435.059 165.408 447.872 171.647 452.987 174.322C460.05 179.661 476.413 188.482 485.361 181.057C496.546 171.775 525.027 147.594 531.423 152.959C537.819 158.323 560.701 164.538 565.916 153.638C571.132 142.739 580.975 125.43 584.954 126.508C588.934 127.587 601.626 143.34 604.635 142.899C607.645 142.458 622.474 151.252 635.208 139.501C645.395 130.1 651.181 149.484 652.801 160.351C657.241 163.439 684.12 144.465 684.12 144.465C686.509 141.678 692.223 139.324 695.97 152.2C699.717 165.076 707.711 165.434 711.24 164.003C715.151 168.581 726.903 176.214 742.626 170.123C758.349 164.031 766.064 156.582 767.956 153.618C770.691 150.172 777.253 143.7 781.621 145.386C787.08 147.494 798.46 153.719 803.018 150.809C807.576 147.898 815.634 145.056 826.486 127.266C835.168 113.035 846.12 120.652 850.511 126.239C853.236 131.794 860.486 142.839 867.693 142.581C876.701 142.259 892.286 138.065 893.404 132.086C894.299 127.302 899.612 138.542 902.156 144.76C903.132 154.448 907.678 174.175 918.052 175.58C928.427 176.984 932.066 175.022 932.589 173.866C942.097 173.553 961.344 171.332 962.27 164.949C963.196 158.566 979.699 160.291 987.834 161.952C991.34 161.687 998.421 157.659 998.697 143.662C998.973 129.665 999.982 129.185 1000.45 130.694C1002.69 127.237 1008.66 120.054 1014.69 118.972C1020.71 117.891 1028.73 125.417 1031.99 129.315L1039.48 154.968C1040.93 157.663 1068.53 153.039 1068.53 153.039C1072.71 152.288 1081.45 152.094 1082.94 157.324C1084.82 163.862 1105.58 176.274 1113.09 175.422C1120.61 174.57 1124.61 174.648 1132.75 167.807C1139.26 162.335 1146.21 161.405 1148.87 161.624C1151.53 153.841 1158.33 138.706 1164.29 140.424C1170.26 142.141 1179.74 160.065 1183.74 168.812C1186.29 174.53 1193.4 185.806 1201.42 185.164C1209.43 184.521 1220.73 169.541 1225.38 162.131C1226.15 156.645 1228.33 144.286 1230.84 138.734C1233.98 131.795 1241.77 116.945 1244.77 117.004C1247.77 117.063 1255.95 133.228 1260.98 131.827C1266.01 130.425 1280.51 130.711 1302.1 100.631C1305.08 110.524 1312.52 130.442 1318.51 130.96C1326 131.607 1320.68 147.506 1335.23 145.292C1349.78 143.078 1362.96 133.836 1365.84 139.894C1368.15 144.74 1382.14 158.552 1388.86 164.852C1391.78 168.577 1400.06 175.075 1409.73 171.265C1419.41 167.454 1421.92 161.836 1421.97 159.503C1426.17 157.919 1434.96 154.658 1436.57 154.29C1438.58 153.83 1447.72 121.503 1452.14 125.591C1455.68 128.861 1461.07 137.769 1463.32 141.815C1467.56 155.234 1477.33 182.098 1482.53 182.201C1489.03 182.329 1495.41 188.456 1505.62 178.155C1513.78 169.914 1519.62 177.931 1521.52 182.969C1528.32 187.813 1545.62 194.1 1560.42 180.5C1564.42 176 1572.72 167.5 1573.92 169.5C1575.42 172 1580.92 196.5 1598.42 191" stroke="#F1E1B4" stroke-width="0.5"/>
<path d="M1.14007 187.519C9.02746 167.751 22.6552 161.484 32.6031 148.539C40.2732 138.787 36.0631 123.99 43.6593 114.271C48.265 108.379 51.2344 96.9721 58.2409 94.0779C72.005 88.3932 70.9895 128.517 94.0314 99.0381C96.976 95.2713 109.64 76.9014 116.772 76.7785C117.247 76.7711 117.698 76.8447 118.118 77.0084C129.748 81.5252 130.529 92.3992 135.416 101.456C136.781 103.987 149.509 122.411 150.856 123.88C155.079 128.483 177.5 111.751 179.173 113.576C181.273 115.865 184.923 116.797 187.2 119.784C199.35 135.728 199.841 140.152 217.971 150.278C222.032 152.547 225.113 145.767 227.274 143.647C234.93 136.136 237.143 138.338 242.202 133.996C247.619 129.346 259.315 98.7054 268.755 103.98C286.156 113.699 290.53 139.379 299.23 155.501C309.851 175.18 318.614 146.457 328.038 153.357C334.327 157.961 340.749 154.83 351.439 150.413C358.083 147.668 371.953 173.894 377.041 168.654C392.464 152.734 389.252 151.676 398.719 169.92C403.205 159.589 414.76 139.813 425.092 143.363C435.424 146.912 448.237 153.15 453.352 155.826C460.415 161.165 476.778 169.986 485.726 162.561C496.911 153.279 525.393 129.098 531.788 134.463C538.184 139.827 561.066 146.042 566.282 135.142C571.497 124.243 581.34 106.934 585.32 108.012C589.299 109.091 601.991 124.844 605.001 124.403C608.01 123.962 622.84 132.756 635.573 121.005C645.761 111.603 651.547 130.988 653.166 141.855C657.606 144.943 684.485 125.969 684.485 125.969C686.874 123.182 692.588 120.828 696.335 133.704C700.082 146.58 708.077 146.938 711.606 145.507C715.516 150.085 727.268 157.718 742.991 151.627C758.714 145.535 766.429 138.086 768.321 135.122C771.056 131.676 777.618 125.204 781.986 126.89C787.445 128.998 798.825 135.223 803.383 132.313C807.942 129.402 815.999 126.56 826.852 108.77C835.534 94.5386 846.486 102.156 850.876 107.743C853.601 113.298 860.851 124.343 868.058 124.085C877.066 123.762 892.652 119.569 893.77 113.589C894.664 108.806 899.977 120.046 902.522 126.264C903.498 135.952 908.043 155.679 918.418 157.083C928.792 158.488 932.431 156.526 932.954 155.37C942.462 155.057 961.71 152.835 962.636 146.452C963.562 140.069 980.064 141.795 988.2 143.456C991.706 143.191 998.786 139.163 999.062 125.166C999.338 111.169 1000.35 110.688 1000.82 112.198C1003.05 108.741 1009.03 101.558 1015.05 100.476C1021.07 99.3946 1029.09 106.921 1032.35 110.819L1039.85 136.472C1041.29 139.167 1068.89 134.543 1068.89 134.543C1073.07 133.792 1081.81 133.598 1083.31 138.828C1085.18 145.366 1105.94 157.778 1113.46 156.926C1120.98 156.074 1124.98 156.152 1133.11 149.311C1139.62 143.839 1146.57 142.909 1149.24 143.128C1151.89 135.345 1158.69 120.21 1164.66 121.927C1170.63 123.645 1180.11 141.569 1184.1 150.316C1186.66 156.034 1193.77 167.31 1201.78 166.668C1209.8 166.025 1221.1 151.045 1225.74 143.635C1226.52 138.149 1228.69 125.79 1231.2 120.238C1234.34 113.299 1242.14 98.4492 1245.13 98.5083C1248.13 98.5674 1256.32 114.732 1261.35 113.331C1266.37 111.929 1280.87 112.215 1302.47 82.1346C1305.44 92.0284 1312.88 111.946 1318.87 112.464C1326.36 113.111 1321.05 129.01 1335.6 126.796C1350.14 124.582 1363.33 115.34 1366.21 121.398C1368.51 126.244 1382.51 140.056 1389.22 146.356C1392.15 150.081 1400.42 156.579 1410.1 152.769C1419.77 148.958 1422.29 143.34 1422.33 141.007C1426.53 139.423 1435.33 136.162 1436.94 135.794C1438.95 135.333 1448.09 103.007 1452.51 107.095C1456.04 110.365 1461.43 119.273 1463.69 123.318C1467.93 136.738 1477.7 163.602 1482.9 163.705C1489.4 163.833 1495.78 169.96 1505.98 159.659C1514.14 151.418 1519.99 159.435 1521.89 164.473C1530.56 169.149 1550.42 175.1 1560.42 161.5C1570.42 147.9 1574.92 149.5 1575.92 152C1580.25 162.5 1591.12 182.2 1597.92 177" stroke="#F1E1B4" stroke-width="0.75"/>
<path d="M1.50335 169.023C9.39074 149.255 23.0185 142.988 32.9664 130.042C40.6364 120.291 36.4263 105.494 44.0225 95.7749C48.6283 89.8824 51.5977 78.4761 58.6042 75.5818C72.3683 69.8971 71.3528 110.021 94.3946 80.542C97.3393 76.7752 110.003 58.4053 117.135 58.2824C117.611 58.275 118.061 58.3486 118.482 58.5123C130.111 63.0291 130.892 73.9031 135.779 82.9596C137.145 85.4912 149.872 103.914 151.219 105.384C155.443 109.987 177.863 93.2552 179.537 95.0799C181.636 97.3684 185.286 98.3008 187.563 101.288C199.714 117.232 200.204 121.656 218.334 131.782C222.395 134.051 225.476 127.271 227.638 125.151C235.294 117.639 237.506 119.842 242.565 115.499C247.983 110.85 259.678 80.2093 269.118 85.4841C286.52 95.2034 290.893 120.883 299.594 137.005C310.214 156.684 318.977 127.961 328.401 134.861C334.691 139.465 341.113 136.333 351.802 131.917C358.446 129.172 372.316 155.398 377.405 150.158C392.827 134.238 389.616 133.18 399.082 151.424C403.568 141.093 415.123 121.317 425.455 124.866C435.788 128.416 448.6 134.654 453.715 137.33C460.778 142.669 477.141 151.49 486.089 144.065C497.274 134.783 525.756 110.602 532.152 115.967C538.547 121.331 561.429 127.546 566.645 116.646C571.861 105.747 581.703 88.4374 585.683 89.516C589.662 90.5946 602.355 106.348 605.364 105.907C608.373 105.466 623.203 114.26 635.937 102.509C646.124 93.1074 651.91 112.492 653.529 123.359C657.969 126.447 684.848 107.473 684.848 107.473C687.237 104.686 692.951 102.332 696.698 115.208C700.445 128.084 708.44 128.442 711.969 127.011C715.879 131.589 727.631 139.222 743.354 133.131C759.077 127.039 766.792 119.59 768.684 116.626C771.42 113.18 777.982 106.708 782.349 108.394C787.809 110.502 799.188 116.727 803.747 113.816C808.305 110.906 816.362 108.064 827.215 90.2742C835.897 76.0425 846.849 83.6597 851.24 89.2473C853.964 94.802 861.215 105.847 868.421 105.589C877.429 105.266 893.015 101.073 894.133 95.0934C895.027 90.3101 900.34 101.55 902.885 107.768C903.861 117.456 908.407 137.183 918.781 138.587C929.155 139.992 932.795 138.03 933.317 136.873C942.826 136.561 962.073 134.339 962.999 127.956C963.925 121.573 980.427 123.299 988.563 124.959C992.069 124.695 999.15 120.667 999.425 106.67C999.701 92.6726 1000.71 92.1924 1001.18 93.7019C1003.42 90.2453 1009.39 83.0616 1015.41 81.98C1021.44 80.8985 1029.46 88.4246 1032.71 92.3228L1040.21 117.975C1041.66 120.671 1069.25 116.047 1069.25 116.047C1073.44 115.296 1082.18 115.102 1083.67 120.332C1085.54 126.87 1106.3 139.282 1113.82 138.43C1121.34 137.578 1125.34 137.656 1133.48 130.815C1139.98 125.342 1146.94 124.413 1149.6 124.632C1152.25 116.849 1159.05 101.713 1165.02 103.431C1170.99 105.149 1180.47 123.073 1184.47 131.82C1187.02 137.538 1194.13 148.814 1202.15 148.171C1210.16 147.529 1221.46 132.549 1226.11 125.139C1226.88 119.653 1229.06 107.294 1231.57 101.742C1234.7 94.8024 1242.5 79.9531 1245.5 80.0122C1248.5 80.0713 1256.68 96.2356 1261.71 94.8344C1266.74 93.4332 1281.24 93.7188 1302.83 63.6385C1305.8 73.5323 1313.25 93.4494 1319.24 93.9675C1326.73 94.6152 1321.41 110.514 1335.96 108.3C1350.5 106.086 1363.69 96.8438 1366.57 102.902C1368.88 107.748 1382.87 121.56 1389.58 127.86C1392.51 131.585 1400.78 138.083 1410.46 134.272C1420.14 130.462 1422.65 124.844 1422.7 122.511C1426.89 120.927 1435.69 117.666 1437.3 117.298C1439.31 116.837 1448.45 84.5111 1452.87 88.599C1456.41 91.8693 1461.8 100.777 1464.05 104.822C1468.29 118.242 1478.06 145.106 1483.26 145.209C1489.76 145.337 1496.14 151.464 1506.34 141.163C1514.51 132.922 1520.35 140.938 1522.25 145.977C1532.64 152.818 1556.32 159.1 1567.92 129.5C1571.08 123.667 1578.52 116.8 1582.92 136C1587.32 155.2 1595.42 163 1598.42 164.5" stroke="#F1E1B4"/>
</svg>
